<?xml version="1.0" encoding="utf-8"?>
<!DOCTYPE svg PUBLIC "-//W3C//DTD SVG 1.1//EN" "http://www.w3.org/Graphics/SVG/1.1/DTD/svg11.dtd">
<svg version="1.1" xmlns="http://www.w3.org/2000/svg" width="45" height="45">
  <g>
    <path
       fill="#000000" fill-rule="evenodd" stroke="#000000" stroke-width="1" stroke-linecap="round" stroke-linejoin="miter"
       d="M 22,10 C 32.5,11 38.5,18 38,39 L 15,39 C 15,30 25,32.5 23,18" />
    <path
       fill="#000000" fill-rule="evenodd" stroke="#000000" stroke-width="1" stroke-linecap="round" stroke-linejoin="round"
       d="M 24,18 C 24.384461,20.911278 18.447064,25.368624 16,27 C 13,29 13.180802,31.342892 11,31 C 9.95828,30.055984 12.413429,27.962451 11,28 C 10,28 11.187332,29.231727 10,30 C 9,30 5.9968392,30.999999 6,26 C 6,24 12,14 12,14 C 12,14 13.885866,12.097871 14,10.5 C 13.273953,9.505631 13.5,8.5 13.5,7.5 C 14.5,6.5 16.5,10 16.5,10 L 18.5,10 C 18.5,10 19.281781,8.0080745 21,7 C 22,7 22,10 22,10" />
    <circle
       stroke="#FFFFFF" stroke-width="1"
       cx="9" cy="25.5" r="0.5" />
    <ellipse
       stroke="#FFFFFF" stroke-width="1"
       cx="14.5" cy="15.5" rx="0.5" ry="1.5"
       transform="matrix(0.866025,0.5,-0.5,0.866025,9.692632,-5.173394)" />
    <path
       fill="#FFFFFF" fill-rule="evenodd"
       d="M 24.55,10.4 L 24.1,11.85 L 24.6,12 C 27.75,13 30.248526,14.490454 32.5,18.75 C 34.751474,23.009546 35.747157,29.05687 35.25,39 L 35.2,39.5 L 37.45,39.5 L 37.5,39 C 38.002843,28.94313 36.623526,22.146704 34.25,17.65625 C 31.876474,13.165796 28.461041,11.022853 25.0625,10.5 L 24.55,10.4 z " />
  </g>
</svg>
