<?xml version="1.0" encoding="UTF-8" standalone="no"?>
<!-- Created with Inkscape (http://www.inkscape.org/) -->

<svg
   xmlns:dc="http://purl.org/dc/elements/1.1/"
   xmlns:cc="http://creativecommons.org/ns#"
   xmlns:rdf="http://www.w3.org/1999/02/22-rdf-syntax-ns#"
   xmlns:svg="http://www.w3.org/2000/svg"
   xmlns="http://www.w3.org/2000/svg"
   xmlns:xlink="http://www.w3.org/1999/xlink"
   xmlns:sodipodi="http://sodipodi.sourceforge.net/DTD/sodipodi-0.dtd"
   xmlns:inkscape="http://www.inkscape.org/namespaces/inkscape"
   width="145.8244"
   height="144.63728"
   id="svg2014"
   sodipodi:version="0.32"
   inkscape:version="0.48.2 r9819"
   version="1.0"
   sodipodi:docname="board_close_d.svg">
  <defs
     id="defs2016">
    <linearGradient
       id="linearGradient2555">
      <stop
         style="stop-color:#ffffff;stop-opacity:1;"
         offset="0"
         id="stop2557" />
      <stop
         style="stop-color:#ffffff;stop-opacity:0;"
         offset="1"
         id="stop2559" />
    </linearGradient>
    <linearGradient
       inkscape:collect="always"
       xlink:href="#linearGradient2555"
       id="linearGradient2993"
       gradientUnits="userSpaceOnUse"
       gradientTransform="matrix(-0.5914584,0,0,0.5914584,154.8957,149.46272)"
       x1="-344.15295"
       y1="274.711"
       x2="-395.84943"
       y2="425.39993" />
  </defs>
  <sodipodi:namedview
     id="base"
     pagecolor="#ffffff"
     bordercolor="#666666"
     borderopacity="1.0"
     gridtolerance="10000"
     guidetolerance="10"
     objecttolerance="10"
     inkscape:pageopacity="0.0"
     inkscape:pageshadow="2"
     inkscape:zoom="1.4"
     inkscape:cx="9.4731827"
     inkscape:cy="51.252523"
     inkscape:document-units="px"
     inkscape:current-layer="layer1"
     inkscape:window-width="1046"
     inkscape:window-height="569"
     inkscape:window-x="105"
     inkscape:window-y="153"
     showgrid="false"
     inkscape:window-maximized="0" />
  <metadata
     id="metadata2019">
    <rdf:RDF>
      <cc:Work
         rdf:about="">
        <dc:format>image/svg+xml</dc:format>
        <dc:type
           rdf:resource="http://purl.org/dc/dcmitype/StillImage" />
        <dc:creator>
          <cc:Agent>
            <dc:title>Lumen Design Studio</dc:title>
          </cc:Agent>
        </dc:creator>
        <dc:contributor>
          <cc:Agent>
            <dc:title>Lumen Design Studio</dc:title>
          </cc:Agent>
        </dc:contributor>
        <dc:title />
        <dc:description>error warning icon</dc:description>
        <dc:subject>
          <rdf:Bag>
            <rdf:li>error</rdf:li>
            <rdf:li>icon</rdf:li>
            <rdf:li>button</rdf:li>
            <rdf:li>red</rdf:li>
            <rdf:li>stop</rdf:li>
            <rdf:li>no</rdf:li>
            <rdf:li>warning</rdf:li>
            <rdf:li>negative</rdf:li>
            <rdf:li>delete</rdf:li>
            <rdf:li>cancel</rdf:li>
            <rdf:li>square</rdf:li>
          </rdf:Bag>
        </dc:subject>
        <cc:license
           rdf:resource="http://web.resource.org/cc/PublicDomain" />
      </cc:Work>
      <cc:License
         rdf:about="http://web.resource.org/cc/PublicDomain">
        <cc:permits
           rdf:resource="http://web.resource.org/cc/Reproduction" />
        <cc:permits
           rdf:resource="http://web.resource.org/cc/Distribution" />
        <cc:permits
           rdf:resource="http://web.resource.org/cc/DerivativeWorks" />
      </cc:License>
    </rdf:RDF>
  </metadata>
  <g
     inkscape:label="Layer 1"
     inkscape:groupmode="layer"
     id="layer1"
     transform="translate(-318.5164,-325.5746)">
    <rect
       style="fill:#7d7d7d;fill-opacity:1;fill-rule:evenodd;stroke:none"
       id="rect3417"
       width="131.24196"
       height="130.17355"
       x="-457.04959"
       y="332.80646"
       rx="35.487503"
       ry="35.487503"
       transform="scale(-1,1)"
       inkscape:export-filename="C:\Documents and Settings\Molumen\Desktop\path3511111.png"
       inkscape:export-xdpi="7.7063322"
       inkscape:export-ydpi="7.7063322" />
    <path
       id="path3419"
       d="m 405.52806,397.89318 21.16106,-21.16106 c 2.21683,-2.21694 3.32527,-4.66894 3.32531,-7.35598 -0.1344,-2.41847 -1.24283,-4.66893 -3.32531,-6.75139 -1.88102,-1.88104 -4.09789,-2.95588 -6.65062,-3.22453 -2.61997,-0.2016 -5.10555,0.87325 -7.45675,3.22453 l -21.16106,21.16106 -21.16106,-21.16106 c -2.14967,-2.14975 -4.56807,-3.2246 -7.25522,-3.22453 -2.61991,0.20146 -4.90395,1.27631 -6.85215,3.22454 -1.67941,1.67937 -2.65349,3.86266 -2.92225,6.54984 -0.26867,2.82141 0.70542,5.34058 2.92225,7.55753 l 21.16105,21.16106 -21.16105,21.16105 c -1.88095,1.88086 -2.9222,4.33286 -3.12378,7.35599 0.20158,2.6198 1.24283,4.87027 3.12378,6.75138 1.74666,1.7465 3.96353,2.82134 6.65062,3.22455 2.61997,0.20139 5.10554,-0.87345 7.45675,-3.22455 l 21.16105,-21.16105 21.16107,21.16105 c 2.21684,2.21674 4.66884,3.19082 7.35598,2.92224 2.75427,-0.20166 5.00473,-1.17575 6.75139,-2.92224 1.61223,-1.6124 2.58631,-3.79568 2.92223,-6.54985 0.40304,-2.68724 -0.57104,-5.20641 -2.92223,-7.55752 l -21.16106,-21.16106"
       style="font-size:454.95709228999999000px;font-style:normal;font-variant:normal;font-weight:normal;font-stretch:normal;line-height:100%;writing-mode:lr-tb;text-anchor:start;fill:#6d6d6d;fill-opacity:1;stroke:none;font-family:GOST type B"
       inkscape:connector-curvature="0" />
    <path
       style="font-size:454.95709229px;font-style:normal;font-variant:normal;font-weight:normal;font-stretch:normal;line-height:100%;writing-mode:lr-tb;text-anchor:start;fill:#ffffff;fill-opacity:1;stroke:none;font-family:GOST type B"
       d="m 404.43557,397.89318 19.51052,-19.51053 c 2.04392,-2.04402 3.06591,-4.30477 3.06594,-6.78223 -0.12391,-2.22983 -1.14588,-4.30475 -3.06594,-6.22478 -1.7343,-1.73432 -3.77826,-2.72534 -6.13188,-2.97303 -2.41561,-0.18588 -4.70732,0.80514 -6.87513,2.97303 l -19.51053,19.51052 -19.51053,-19.51052 c -1.982,-1.98208 -4.21177,-2.97309 -6.68933,-2.97303 -2.41555,0.18575 -4.52145,1.17676 -6.31768,2.97303 -1.54843,1.54839 -2.44653,3.56138 -2.69432,6.03897 -0.24771,2.60134 0.65039,4.92402 2.69432,6.96805 l 19.51052,19.51053 -19.51052,19.51052 c -1.73424,1.73416 -2.69428,3.9949 -2.88013,6.78223 0.18585,2.41547 1.14589,4.4904 2.88013,6.22478 1.61042,1.61028 3.65438,2.60128 6.13188,2.97304 2.41561,0.18569 4.70731,-0.80532 6.87513,-2.97304 l 19.51053,-19.51052 19.51053,19.51053 c 2.04393,2.04383 4.30467,2.94194 6.78223,2.69431 2.53943,-0.18594 4.61436,-1.08405 6.22478,-2.69431 1.48649,-1.48664 2.38459,-3.49963 2.69431,-6.03897 0.3716,-2.47765 -0.5265,-4.80033 -2.69431,-6.96805 l -19.51052,-19.51053"
       id="path3421"
       inkscape:connector-curvature="0" />
    <path
       inkscape:connector-curvature="0"
       style="fill:url(#linearGradient2993);fill-opacity:1;fill-rule:evenodd;stroke:none"
       d="m 422.37545,338.37145 -61.89358,0 c -16.3834,0 -29.57292,13.18952 -29.57292,29.57291 l 0,59.89765 c 0.5303,12.78863 2.57017,4.70393 6.45298,-9.45861 4.51265,-16.45974 19.20898,-30.8458 37.10652,-41.62731 13.6606,-8.22914 28.95104,-13.48395 56.78372,-13.98385 15.78472,-0.28349 14.39119,-20.32067 -8.87672,-24.40079 z"
       id="path3423"
       sodipodi:nodetypes="ccccsssc"
       inkscape:export-filename="C:\Documents and Settings\Molumen\Desktop\path3511111.png"
       inkscape:export-xdpi="7.7063322"
       inkscape:export-ydpi="7.7063322" />
  </g>
</svg>
