<?xml version="1.0" encoding="UTF-8" standalone="no"?>
<!-- Created with Inkscape (http://www.inkscape.org/) -->

<svg
   xmlns:dc="http://purl.org/dc/elements/1.1/"
   xmlns:cc="http://creativecommons.org/ns#"
   xmlns:rdf="http://www.w3.org/1999/02/22-rdf-syntax-ns#"
   xmlns:svg="http://www.w3.org/2000/svg"
   xmlns="http://www.w3.org/2000/svg"
   xmlns:xlink="http://www.w3.org/1999/xlink"
   xmlns:sodipodi="http://sodipodi.sourceforge.net/DTD/sodipodi-0.dtd"
   xmlns:inkscape="http://www.inkscape.org/namespaces/inkscape"
   width="1325.0601"
   height="207.03999"
   id="svg2"
   version="1.1"
   inkscape:version="0.48.2 r9819"
   sodipodi:docname="logo_knights.svg">
  <defs
     id="defs4">
    <linearGradient
       id="linearGradient3825">
      <stop
         style="stop-color:#00007f;stop-opacity:1;"
         offset="0"
         id="stop3827" />
      <stop
         style="stop-color:#000000;stop-opacity:1;"
         offset="1"
         id="stop3829" />
    </linearGradient>
    <clipPath
       clipPathUnits="userSpaceOnUse"
       id="clipPath5618">
      <path
         sodipodi:type="inkscape:offset"
         inkscape:radius="9.6005774"
         inkscape:original="M 230.5625 493.96875 C 213.99009 494.08234 202.99564 496.89788 197.53125 502.4375 C 192.00108 508.04406 189.92652 515.11616 191.34375 523.625 C 192.17331 528.59135 194.89314 535.85476 199.5 545.46875 C 196.40484 548.47317 193.37116 551.32804 190.40625 554 L 200.09375 571.84375 C 202.69202 568.87596 205.44624 565.82146 208.375 562.71875 L 212.1875 569.65625 L 212.15625 569.71875 C 223.18733 588.10578 228.59658 600.47812 228.375 606.84375 C 228.14979 612.67905 226.0439 617.58912 222.09375 621.59375 C 217.48526 626.26578 213.75203 629.08153 210.875 630.0625 C 227.44743 629.94899 238.47312 627.13345 243.9375 621.59375 C 249.07267 616.38773 251.26986 610.55434 250.5625 604.0625 C 249.43285 593.99374 242.2774 577.47775 229.09375 554.53125 L 229.15625 554.46875 C 227.47949 551.62969 225.94058 548.97828 224.53125 546.46875 C 227.49477 543.59792 230.55515 540.65947 233.75 537.6875 L 224.09375 519.84375 C 221.33047 522.91222 218.60462 525.88101 215.90625 528.75 C 211.58928 517.90762 212.72727 509.14533 219.34375 502.4375 C 223.95226 497.76555 227.68548 494.9498 230.5625 493.96875 z M 119.375 494.15625 C 109.78011 494.00619 100.99422 498.69568 93 508.21875 C 96.201096 505.5141 102.10224 505.18994 110.71875 507.25 C 118.33226 509.07047 124.27817 515.00177 128.53125 525.03125 C 132.48097 534.31365 132.07106 554.80672 127.28125 586.53125 C 117.30938 598.60591 106.26435 611.13903 94.1875 624.15625 L 120.8125 630.53125 C 142.51501 597.21148 166.65909 568.28607 193.25 543.75 L 163.84375 536.71875 C 159.93804 542.77345 155.72393 548.96753 151.21875 555.3125 C 151.58209 545.32645 150.78702 535.0023 148.8125 524.3125 C 145.75344 507.67646 138.19196 497.90907 126.15625 495.03125 C 123.8568 494.48149 121.5892 494.19088 119.375 494.15625 z M 246.65625 494.90625 C 243.41232 495.12006 240.1967 496.21527 237.0625 498.1875 C 233.88867 500.18488 231.32827 502.7245 229.375 505.78125 C 226.9074 509.60495 226.57119 512.90203 228.34375 515.71875 C 230.11637 518.53562 233.12947 519.73319 237.40625 519.3125 C 240.95289 518.96376 244.28051 517.82243 247.375 515.875 C 250.42984 513.95269 252.85543 511.49673 254.625 508.5 C 256.82962 504.78659 257.06641 501.58129 255.34375 498.84375 C 253.5462 495.98738 250.65535 494.66049 246.65625 494.90625 z M 255.78125 514.84375 L 235.84375 527.375 L 252.8125 589.46875 L 272.75 576.9375 L 255.78125 514.84375 z M 186.5 557.96875 L 170.21875 575 L 173.40625 580.65625 C 167.98435 579.88605 162.85493 582.01146 158.03125 587.0625 C 151.45945 593.94429 148.952 602.92898 150.5 614 C 151.965 624.34362 156.256 632.92033 163.375 639.71875 C 168.05323 644.18631 173.00483 646.59154 178.21875 646.96875 C 183.83185 647.40309 188.81706 645.35778 193.1875 640.78125 C 196.48959 637.32346 198.78676 633.03763 200.0625 627.96875 L 201.8125 631.125 L 218.09375 614.09375 C 206.41808 596.59198 195.87711 577.87757 186.5 557.96875 z M 175.28125 594.375 C 177.00475 594.3519 178.7515 595.20667 180.53125 596.90625 C 183.20936 599.46382 184.77105 602.55278 185.21875 606.15625 C 185.67256 610.02491 184.64901 613.26473 182.15625 615.875 C 178.62754 619.57015 175.01027 619.62363 171.28125 616.0625 C 168.77266 613.6669 167.38265 610.49936 167.09375 606.59375 C 166.80488 602.68824 167.82425 599.50602 170.1875 597.03125 C 171.85474 595.28543 173.55775 594.39812 175.28125 594.375 z "
         style="font-size:144px;font-style:normal;font-variant:normal;font-weight:normal;font-stretch:normal;line-height:484.99999046%;letter-spacing:0px;word-spacing:0px;fill:#729fcf;fill-opacity:1;stroke:#204a87;stroke-width:2;stroke-opacity:1;font-family:Kool Beans;-inkscape-font-specification:Kool Beans"
         id="path5620"
         d="m 230.5,484.375 c -17.63061,0.12084 -30.96894,2.34719 -39.8125,11.3125 -7.52168,7.62558 -10.62084,18.64301 -8.8125,29.5 a 9.6015374,9.6015374 0 0 0 0,0.0312 c 0.33662,2.01524 0.89884,4.12208 1.5625,6.3125 l -17.375,-4.15625 a 9.6015374,9.6015374 0 0 0 -7.03125,1.0625 c -0.29049,-1.96452 -0.41511,-3.89277 -0.78125,-5.875 -3.44709,-18.74625 -13.94529,-33.0661 -29.875,-36.875 -2.94357,-0.70376 -5.8923,-1.07884 -8.84375,-1.125 -12.81355,-0.2004 -24.651544,6.48136 -33.875,17.46875 A 9.6015374,9.6015374 0 0 0 99.1875,515.5625 c -0.953134,0.80532 1.88167,-0.74533 9.3125,1.03125 4.12583,0.98653 7.65887,3.8664 11.1875,12.1875 1.80619,4.24479 2.64524,24.08795 -1.59375,53.71875 -9.3869,11.27687 -19.651453,22.96016 -30.9375,35.125 A 9.6015374,9.6015374 0 0 0 91.9375,633.5 l 26.625,6.375 a 9.6015374,9.6015374 0 0 0 10.28125,-4.09375 c 4.10047,-6.29544 8.38378,-12.28164 12.65625,-18.25 2.04194,11.28148 7.14114,21.38129 15.25,29.125 5.86487,5.60076 13.03494,9.30213 20.71875,9.875 0.0206,0.002 0.0419,-0.001 0.0625,0 8.3397,0.62421 16.70635,-2.95998 22.59375,-9.125 2.13121,-2.2317 3.93957,-4.73685 5.4375,-7.4375 a 9.6015374,9.6015374 0 0 0 1.78125,-1 9.6015374,9.6015374 0 0 0 3.59375,0.6875 c 17.63057,-0.12076 30.98735,-2.33403 39.84375,-11.3125 6.6916,-6.78393 10.31884,-16.07677 9.3125,-25.3125 a 9.6015374,9.6015374 0 0 0 0,-0.0312 C 259.87513,601.05142 259.48231,598.99882 259,596.90625 L 277.84375,585.0625 A 9.6015374,9.6015374 0 0 0 282,574.40625 L 265.03125,512.3125 a 9.6015374,9.6015374 0 0 0 -0.8125,-2 c 2.04463,-5.23553 2.35476,-11.65987 -0.75,-16.59375 -3.55507,-5.64912 -11.01277,-8.79915 -17.40625,-8.40625 a 9.6015374,9.6015374 0 0 0 -0.0312,0 c -2.92236,0.19261 -5.76302,0.99606 -8.5,2.0625 a 9.6015374,9.6015374 0 0 0 -7.03125,-3 z"
         transform="translate(-30,310)" />
    </clipPath>
    <clipPath
       clipPathUnits="userSpaceOnUse"
       id="clipPath6097">
      <path
         style="font-size:144px;font-style:normal;font-variant:normal;font-weight:normal;font-stretch:normal;line-height:484.99999046%;letter-spacing:0px;word-spacing:0px;fill:#72b3cf;fill-opacity:1;stroke:#000000;stroke-width:1.53110051;stroke-opacity:1;font-family:Kool Beans;-inkscape-font-specification:Kool Beans"
         d="m 92.15311,768.16147 c -18.923062,1.9e-4 -37.205726,13.7657 -45.263158,29.88038 -2.247571,4.52539 -3.114312,9.72525 -2.456107,14.73499 0.658212,5.00974 2.838722,9.80924 6.178978,13.60047 3.340256,3.79123 7.82684,6.55896 12.713761,7.843 4.886913,1.28404 10.154541,1.07923 14.927005,-0.58037 1.053994,4.28507 3.201393,12.19892 4.688995,23.30143 -4.231648,8.35861 -8.784176,16.98242 -13.923445,26.10048 -2.185531,3.87653 -3.336238,8.33029 -3.30204,12.78034 0.03422,4.45004 1.253236,8.88558 3.498097,12.72806 4.489715,7.68497 13.224169,12.6977 22.124517,12.69734 l 20.933017,0 c 8.95119,-0.0164 17.72229,-5.10684 22.17703,-12.87081 5.70956,2.66741 11.90023,4.16268 17.51196,4.16268 0.4324,0 0.85997,-0.0826 1.29187,-0.0957 0.54745,0.69134 1.13062,1.3544 1.74641,1.98564 10.96808,10.96804 21.64992,20.98079 40.50239,20.98086 11.51026,-4e-5 25.13354,-5.59131 33.01436,-15.26315 0.016,-0.0159 0.0319,-0.0318 0.0478,-0.0478 2.48077,-3.06448 4.57568,-6.20429 6.43541,-9.44976 2.79859,1.02215 5.77657,1.55103 8.75598,1.55502 l 18.03828,0 c 5.45025,7.1e-4 10.88596,-1.79426 15.26404,-5.04043 4.37807,-3.24619 7.67478,-7.926 9.25749,-13.14139 l 13.7799,-45.40669 c 4.42932,-5.49424 7.8707,-12.51706 7.87082,-19.73685 -1.7e-4,-11.36079 -9.09861,-24.05658 -17.3445,-28.56459 -0.0318,-0.016 -0.0638,-0.0319 -0.0957,-0.0478 -6.36022,-3.44053 -13.39495,-4.8563 -19.76077,-4.85646 -5.57362,1.3e-4 -11.40183,1.15117 -16.74641,3.30144 -5.30278,-2.42405 -11.31725,-3.89944 -18.51675,-3.89952 -13.58568,1.5e-4 -28.01251,8.14719 -35.59808,18.61244 -0.22694,0.31339 -0.38096,0.62146 -0.59809,0.93301 -1.65889,-0.34981 -3.35256,-0.53443 -5.04785,-0.55024 l -18.03827,0 c -0.0797,-3.7e-4 -0.15949,-3.7e-4 -0.23924,0 -1.00504,-5.89458 -4.14985,-11.4006 -8.71644,-15.26097 -4.56659,-3.86037 -10.51923,-6.0449 -16.49887,-6.05482 l -18.0622,0 c -8.97687,-13.39174 -23.89908,-24.32996 -40.55024,-24.33014 z"
         id="path6099"
         inkscape:connector-curvature="0"
         sodipodi:nodetypes="ccssscccsscccsccscccccssccccccccccccsccc" />
    </clipPath>
    <clipPath
       clipPathUnits="userSpaceOnUse"
       id="clipPath6321">
      <path
         id="path6323"
         style="font-size:144px;font-style:normal;font-variant:normal;font-weight:normal;font-stretch:normal;line-height:484.99999046%;letter-spacing:0px;word-spacing:0px;fill:#000000;fill-opacity:1;stroke:none;font-family:Kool Beans;-inkscape-font-specification:Kool Beans"
         d="m 58.35937,778.40906 c -19.5505,2e-4 -37.38979,13.21728 -46.34375,31.125 -2.00714,4.00576 -2.54856,8.72628 -1.50048,13.08245 1.04808,4.35617 3.67742,8.31381 7.28697,10.96822 3.60955,2.6544 8.17097,3.98474 12.64154,3.6869 4.47057,-0.29785 8.8152,-2.22154 12.04072,-5.33132 -1.83381,1.79907 -1.25804,0.31256 3.71875,0.3125 0.65523,1e-5 1.71895,-0.42606 6,5.375 0.0104,1e-5 0.0208,1e-5 0.0312,0 -0.33617,-0.45436 5.78168,17.50529 8.71875,45.28125 -6.1049,12.2225 -12.82854,24.92361 -20.375,38.3125 -3.26666,5.80541 -3.20427,13.34165 0.15806,19.09218 3.36233,5.75053 9.89932,9.50108 16.56069,9.50157 l 27.34375,0 c 7.85411,-0.005 15.42797,-5.35092 18.0625,-12.75 0.657,-1.8419 1.42015,-3.55294 2.09375,-5.375 6.43688,4.20263 14.12046,6.66747 21.4375,6.71875 0.96004,2.49963 2.45041,4.79412 4.3438,6.6875 13.21391,13.21386 25.37537,23.21868 42.8125,23.21875 11.7394,-5e-5 24.39981,-5.29044 32.03125,-14.65625 0.0104,-0.0208 0.0208,-0.0417 0.0312,-0.0625 4.26516,-5.26874 7.65207,-11.52352 10.78125,-18.53125 3.02369,1.89863 6.5859,2.92893 10.15625,2.9375 l 23.5625,0 c 4.07948,-0.004 8.14662,-1.35124 11.42154,-3.78372 3.27492,-2.43248 5.73989,-5.9369 6.92221,-9.84128 l 18.6875,-61.59375 c 0.0105,-0.0312 0.0209,-0.0625 0.0313,-0.0937 4.94018,-4.97141 8.99989,-11.84242 9,-19.25 -1.5e-4,-10.06546 -7.64854,-20.60846 -15.28125,-24.78125 -0.0208,-0.0104 -0.0417,-0.0208 -0.0625,-0.0312 -5.93126,-3.2085 -12.62178,-4.62485 -18.96875,-4.625 -6.02233,1.4e-4 -12.15773,1.29982 -17.78125,3.78125 -5.50101,-2.73835 -11.41215,-4.56243 -18.28125,-4.5625 -13.5335,1.5e-4 -27.10629,7.55903 -34.96875,18.40625 -1.60473,2.21608 -2.97075,4.57209 -4.28125,7 -1.50992,-0.38475 -3.06686,-0.58463 -4.625,-0.59375 l -23.5625,0 c -2.18039,0.0176 -4.35726,0.41053 -6.40625,1.15625 -0.11719,-0.0319 -0.22643,-0.0942 -0.34375,-0.125 3.38942,-5.79226 3.42548,-13.39769 0.0911,-19.22181 -3.33437,-5.82413 -9.91128,-9.64357 -16.62234,-9.65319 l -30.21875,0 c -0.47972,0.003 -0.95934,0.0237 -1.4375,0.0625 -8.96418,-17.9879 -25.53772,-31.84355 -44.90625,-31.84375 z"
         inkscape:connector-curvature="0"
         sodipodi:nodetypes="ccsssccccccscccccsscccccscccccccccccccccsccccc"
         clip-path="none" />
    </clipPath>
    <filter
       inkscape:collect="always"
       id="filter6359"
       color-interpolation-filters="sRGB">
      <feGaussianBlur
         inkscape:collect="always"
         stdDeviation="3.5694717"
         id="feGaussianBlur6361" />
    </filter>
    <filter
       inkscape:collect="always"
       id="filter6379"
       color-interpolation-filters="sRGB">
      <feGaussianBlur
         inkscape:collect="always"
         stdDeviation="2.9939063"
         id="feGaussianBlur6381" />
    </filter>
    <linearGradient
       inkscape:collect="always"
       xlink:href="#linearGradient3825"
       id="linearGradient3831"
       x1="138.42162"
       y1="457.36204"
       x2="1463.4817"
       y2="457.36204"
       gradientUnits="userSpaceOnUse" />
  </defs>
  <sodipodi:namedview
     id="base"
     pagecolor="#ffffff"
     bordercolor="#666666"
     borderopacity="1.0"
     inkscape:pageopacity="0.0"
     inkscape:pageshadow="2"
     inkscape:zoom="0.2"
     inkscape:cx="575.67145"
     inkscape:cy="2.8903262"
     inkscape:document-units="px"
     inkscape:current-layer="layer1"
     showgrid="false"
     fit-margin-top="0"
     fit-margin-left="0"
     fit-margin-right="0"
     fit-margin-bottom="0"
     showborder="true"
     inkscape:showpageshadow="false"
     borderlayer="false"
     inkscape:window-width="1440"
     inkscape:window-height="838"
     inkscape:window-x="-8"
     inkscape:window-y="-8"
     inkscape:window-maximized="1" />
  <metadata
     id="metadata7">
    <rdf:RDF>
      <cc:Work
         rdf:about="">
        <dc:format>image/svg+xml</dc:format>
        <dc:type
           rdf:resource="http://purl.org/dc/dcmitype/StillImage" />
        <dc:title></dc:title>
      </cc:Work>
    </rdf:RDF>
  </metadata>
  <g
     inkscape:label="Layer 1"
     inkscape:groupmode="layer"
     id="layer1"
     transform="translate(-138.42161,-353.84205)">
    <rect
       style="fill:url(#linearGradient3831);fill-opacity:1;fill-rule:nonzero;stroke:none"
       id="rect3049"
       width="1325.0601"
       height="207.03999"
       x="138.42162"
       y="353.84204"
       rx="0"
       ry="0" />
    <path
       id="path6205-4"
       style="font-size:144px;font-style:normal;font-variant:normal;font-weight:normal;font-stretch:normal;line-height:484.99999046%;letter-spacing:0px;word-spacing:0px;fill:#000000;fill-opacity:1;stroke:none;filter:url(#filter6359);font-family:Kool Beans;-inkscape-font-specification:Kool Beans"
       d="m 195.35541,362.40906 c -19.5505,2e-4 -37.38979,13.21728 -46.34375,31.125 -2.00714,4.00576 -2.54856,8.72628 -1.50048,13.08245 1.04808,4.35617 3.67742,8.31381 7.28697,10.96822 3.60955,2.6544 8.17097,3.98474 12.64154,3.6869 4.47057,-0.29785 8.8152,-2.22154 12.04072,-5.33132 -1.83381,1.79907 -1.25804,0.31256 3.71875,0.3125 0.65523,10e-6 1.71895,-0.42606 6,5.375 0.0104,10e-6 0.0208,10e-6 0.0312,0 -0.33617,-0.45436 5.78168,17.50529 8.71875,45.28125 -6.1049,12.2225 -12.82854,24.92361 -20.375,38.3125 -3.26666,5.80541 -3.20427,13.34165 0.15806,19.09218 3.36233,5.75053 9.89932,9.50108 16.56069,9.50157 l 27.34375,0 c 7.85411,-0.005 15.42797,-5.35092 18.0625,-12.75 0.657,-1.8419 1.42015,-3.55294 2.09375,-5.375 6.43687,4.20263 14.12045,6.66747 21.43749,6.71875 0.96004,2.49963 2.45041,4.79412 4.3438,6.6875 13.21391,13.21386 25.37537,23.21868 42.8125,23.21875 11.7394,-5e-5 24.39981,-5.29044 32.03125,-14.65625 0.0104,-0.0208 0.0208,-0.0417 0.0312,-0.0625 4.26516,-5.26874 7.65207,-11.52352 10.78125,-18.53125 3.02369,1.89863 6.5859,2.92893 10.15625,2.9375 l 23.5625,0 c 4.07948,-0.004 8.14662,-1.35124 11.42154,-3.78372 3.27492,-2.43248 5.73989,-5.9369 6.92221,-9.84128 l 18.6875,-61.59375 c 0.0105,-0.0312 0.0209,-0.0625 0.0313,-0.0937 4.94018,-4.97141 8.99989,-11.84242 9,-19.25 -1.5e-4,-10.06546 -7.64854,-20.60846 -15.28125,-24.78125 -0.0208,-0.0104 -0.0417,-0.0208 -0.0625,-0.0312 -5.93126,-3.2085 -12.62178,-4.62485 -18.96875,-4.625 -6.02233,1.4e-4 -12.15773,1.29982 -17.78125,3.78125 -5.50101,-2.73835 -11.41215,-4.56243 -18.28125,-4.5625 -13.5335,1.5e-4 -27.10629,7.55903 -34.96875,18.40625 -1.60473,2.21608 -2.97075,4.57209 -4.28125,7 -1.50992,-0.38475 -3.06686,-0.58463 -4.625,-0.59375 l -23.5625,0 c -2.18039,0.0176 -4.35726,0.41053 -6.40625,1.15625 -0.11719,-0.0319 -0.22643,-0.0942 -0.34375,-0.125 3.38942,-5.79226 3.42548,-13.39769 0.0911,-19.22181 -3.33437,-5.82413 -9.91128,-9.64357 -16.62234,-9.65319 l -30.21874,0 c -0.47972,0.003 -0.95934,0.0237 -1.4375,0.0625 -8.96418,-17.9879 -25.53772,-31.84355 -44.90625,-31.84375 z"
       inkscape:connector-curvature="0"
       sodipodi:nodetypes="ccsssccccccscccccsscccccscccccccccccccccsccccc" />
    <g
       transform="translate(134,-419)"
       id="layer1-2"
       inkscape:label="Layer 1"
       clip-path="url(#clipPath6321)">
      <g
         transform="translate(130,-97)"
         id="g3996">
        <g
           transform="translate(-130,96.999997)"
           id="g4031">
          <rect
             y="732.36218"
             x="0"
             height="320"
             width="320"
             id="rect2987"
             style="fill:#d18b47;fill-opacity:1;stroke:none" />
          <rect
             y="772.36218"
             x="80"
             height="40"
             width="40"
             id="rect2985"
             style="fill:#ffce9e;fill-opacity:1;stroke:none" />
          <rect
             y="852.36218"
             x="80"
             height="40"
             width="40"
             id="rect2985-1"
             style="fill:#ffce9e;fill-opacity:1;stroke:none" />
          <rect
             y="932.36218"
             x="80"
             height="40"
             width="40"
             id="rect2985-7"
             style="fill:#ffce9e;fill-opacity:1;stroke:none" />
          <rect
             y="1012.3622"
             x="80"
             height="40"
             width="40"
             id="rect2985-4"
             style="fill:#ffce9e;fill-opacity:1;stroke:none" />
          <rect
             y="732.36218"
             x="40"
             height="40"
             width="40"
             id="rect2985-0"
             style="fill:#ffce9e;fill-opacity:1;stroke:none" />
          <rect
             y="812.36218"
             x="40"
             height="40"
             width="40"
             id="rect2985-9"
             style="fill:#ffce9e;fill-opacity:1;stroke:none" />
          <rect
             y="892.36218"
             x="40"
             height="40"
             width="40"
             id="rect2985-48"
             style="fill:#ffce9e;fill-opacity:1;stroke:none" />
          <rect
             y="972.36218"
             x="40"
             height="40"
             width="40"
             id="rect2985-8"
             style="fill:#ffce9e;fill-opacity:1;stroke:none" />
          <rect
             y="772.36218"
             x="0"
             height="40"
             width="40"
             id="rect2985-2"
             style="fill:#ffce9e;fill-opacity:1;stroke:none" />
          <rect
             y="852.36218"
             x="0"
             height="40"
             width="40"
             id="rect2985-45"
             style="fill:#ffce9e;fill-opacity:1;stroke:none" />
          <rect
             y="932.36218"
             x="0"
             height="40"
             width="40"
             id="rect2985-5"
             style="fill:#ffce9e;fill-opacity:1;stroke:none" />
          <rect
             y="1012.3622"
             x="0"
             height="40"
             width="40"
             id="rect2985-17"
             style="fill:#ffce9e;fill-opacity:1;stroke:none"
             ry="0" />
          <rect
             y="812.36218"
             x="200"
             height="40"
             width="40"
             id="rect2985-11"
             style="fill:#ffce9e;fill-opacity:1;stroke:none" />
          <rect
             y="892.36218"
             x="200"
             height="40"
             width="40"
             id="rect2985-52"
             style="fill:#ffce9e;fill-opacity:1;stroke:none" />
          <rect
             y="852.36218"
             x="240"
             height="40"
             width="40"
             id="rect2985-76"
             style="fill:#ffce9e;fill-opacity:1;stroke:none" />
          <rect
             y="932.36218"
             x="240"
             height="40"
             width="40"
             id="rect2985-14"
             style="fill:#ffce9e;fill-opacity:1;stroke:none" />
          <rect
             y="1012.3622"
             x="240"
             height="40"
             width="40"
             id="rect2985-23"
             style="fill:#ffce9e;fill-opacity:1;stroke:none" />
          <rect
             y="772.36218"
             x="160"
             height="40"
             width="40"
             id="rect2985-22"
             style="fill:#ffce9e;fill-opacity:1;stroke:none" />
          <rect
             y="1012.3622"
             x="160"
             height="40"
             width="40"
             id="rect2985-16"
             style="fill:#ffce9e;fill-opacity:1;stroke:none" />
          <rect
             y="932.36218"
             x="160"
             height="40"
             width="40"
             id="rect2985-85"
             style="fill:#ffce9e;fill-opacity:1;stroke:none" />
          <rect
             y="852.36218"
             x="160"
             height="40"
             width="40"
             id="rect2985-761"
             style="fill:#ffce9e;fill-opacity:1;stroke:none" />
          <rect
             y="772.36218"
             x="240"
             height="40"
             width="40"
             id="rect2985-89"
             style="fill:#ffce9e;fill-opacity:1;stroke:none" />
          <rect
             y="732.36218"
             x="280"
             height="40"
             width="40"
             id="rect2985-27"
             style="fill:#ffce9e;fill-opacity:1;stroke:none" />
          <rect
             y="812.36218"
             x="280"
             height="40"
             width="40"
             id="rect2985-95"
             style="fill:#ffce9e;fill-opacity:1;stroke:none" />
          <rect
             y="892.36218"
             x="280"
             height="40"
             width="40"
             id="rect2985-43"
             style="fill:#ffce9e;fill-opacity:1;stroke:none" />
          <rect
             y="972.36218"
             x="280"
             height="40"
             width="40"
             id="rect2985-12"
             style="fill:#ffce9e;fill-opacity:1;stroke:none" />
          <rect
             y="732.36218"
             x="200"
             height="40"
             width="40"
             id="rect2985-3"
             style="fill:#ffce9e;fill-opacity:1;stroke:none" />
          <rect
             y="972.36218"
             x="200"
             height="40"
             width="40"
             id="rect2985-34"
             style="fill:#ffce9e;fill-opacity:1;stroke:none" />
          <rect
             y="732.36218"
             x="120"
             height="40"
             width="40"
             id="rect2985-113"
             style="fill:#ffce9e;fill-opacity:1;stroke:none" />
          <rect
             y="812.36218"
             x="120"
             height="40"
             width="40"
             id="rect2985-87"
             style="fill:#ffce9e;fill-opacity:1;stroke:none" />
          <rect
             y="892.36218"
             x="120"
             height="40"
             width="40"
             id="rect2985-42"
             style="fill:#ffce9e;fill-opacity:1;stroke:none" />
          <rect
             y="972.36218"
             x="120"
             height="40"
             width="40"
             id="rect2985-77"
             style="fill:#ffce9e;fill-opacity:1;stroke:none" />
        </g>
      </g>
    </g>
    <path
       inkscape:connector-curvature="0"
       style="fill:#000000;fill-opacity:1;fill-rule:evenodd;stroke:#000000;stroke-width:1.96884656px;stroke-linecap:round;stroke-linejoin:miter;stroke-opacity:1"
       d="m 366.90758,384.78703 c 20.67289,1.96885 32.48597,15.75078 31.50154,57.09655 l -45.28347,0 c 0,-17.71962 19.68847,-12.7975 15.75078,-41.34577"
       id="path3491-0"
       sodipodi:nodetypes="cccc" />
    <path
       inkscape:connector-curvature="0"
       style="fill:#ffffff;fill-opacity:1;fill-rule:evenodd;stroke:#000000;stroke-width:3.2000227;stroke-linecap:round;stroke-linejoin:miter;stroke-miterlimit:4;stroke-opacity:1;stroke-dasharray:none"
       d="m 247.96698,381.62089 c -22.40016,2.13335 -35.20025,17.06679 -34.13358,61.8671 l 49.06702,0 c 0,-19.20013 -21.33349,-13.86676 -17.06679,-44.80031"
       id="path3491"
       sodipodi:nodetypes="cccc" />
    <path
       inkscape:connector-curvature="0"
       style="fill:none;stroke:#000000;stroke-width:2.13334846;stroke-linecap:round;stroke-linejoin:miter;stroke-miterlimit:4;stroke-opacity:1;stroke-dasharray:none"
       d="m 215.96675,443.48799 c -2.13335,-42.66697 11.73342,-58.66708 25.60018,-60.80043"
       id="path8049"
       sodipodi:nodetypes="cc" />
    <path
       inkscape:connector-curvature="0"
       style="fill:#ffffff;fill-opacity:1;fill-rule:evenodd;stroke:none"
       d="m 371.92814,385.57457 -0.88598,2.85483 0.98442,0.29533 c 6.20187,1.96884 11.12108,4.90331 15.55389,13.28971 4.43281,8.3864 6.39315,20.29265 5.41433,39.86914 l -0.0985,0.98443 4.42991,0 0.0984,-0.98443 c 0.99002,-19.80043 -1.72564,-33.18156 -6.39875,-42.02257 -4.67311,-8.841 -11.39757,-13.06014 -18.08878,-14.08955 l -1.00903,-0.19689 z"
       id="path8049-1"
       sodipodi:nodetypes="cccsccccscc" />
    <path
       sodipodi:type="inkscape:offset"
       inkscape:radius="0"
       inkscape:original="M 196.34375 373.5 C 183.73439 373.50013 174.00002 380.34387 167.15625 394.03125 C 169.64065 390.65636 175.32814 388.96886 184.1875 388.96875 C 192.01563 388.96886 199.15625 393.35948 205.625 402.125 C 211.62498 410.23446 215.96873 430.28132 218.6875 462.25 C 211.79686 476.31252 203.99999 491.06251 195.28125 506.53125 L 222.625 506.53125 C 235.98433 469.07816 252.74994 435.32819 272.90625 405.28125 L 242.6875 405.28125 C 240.29683 412.07821 237.62496 419.09383 234.71875 426.3125 C 232.74996 416.51571 229.56247 406.65634 225.15625 396.71875 C 218.31248 381.25012 208.71874 373.50013 196.34375 373.5 z M 363.625 408.3125 C 355.74996 408.31259 349.24996 411.79696 344.1875 418.78125 C 341.23435 422.85945 337.98435 429.90632 334.375 439.9375 C 330.06248 439.84381 325.89061 439.70318 321.90625 439.46875 L 316 458.875 C 319.93749 458.64067 324.04686 458.46879 328.3125 458.375 L 326.0625 465.96875 L 326 465.96875 C 320.65624 486.73439 315.625 499.28125 310.9375 503.59375 C 306.62501 507.53124 301.65626 509.49999 296.03125 509.5 C 289.46877 509.49999 284.84378 508.79687 282.125 507.4375 C 293.84377 519.15623 303.59376 525.03122 311.375 525.03125 C 318.6875 525.03122 324.40624 522.49998 328.53125 517.4375 C 334.90623 509.56249 341.60935 492.87501 348.6875 467.375 L 348.78125 467.375 C 349.62496 464.18754 350.45309 461.20316 351.25 458.4375 C 355.37496 458.53129 359.60933 458.68754 363.96875 458.875 L 369.875 439.46875 C 365.74995 439.65631 361.7187 439.78131 357.78125 439.875 C 362.4687 429.18757 369.51557 423.84383 378.9375 423.84375 C 381.23056 423.84378 382.98873 424.02152 384.8125 424.1875 C 385.75944 425.30428 387.02882 426.31132 388.71875 427.15625 C 391.90623 428.75007 395.31247 429.53132 398.96875 429.53125 C 402.57809 429.53132 405.93746 428.75007 409.03125 427.15625 C 412.87496 425.18757 414.81245 422.5782 414.8125 419.34375 C 414.81245 415.96883 413.04683 413.32821 409.53125 411.40625 C 406.67184 409.85946 403.39059 409.09384 399.6875 409.09375 C 395.93747 409.09384 392.40623 409.85946 389.125 411.40625 C 385.84216 412.93582 383.95147 414.92363 383.28125 417.34375 C 375.74296 411.40062 369.16633 408.31256 363.625 408.3125 z M 279.03125 432.625 C 269.5156 432.62507 261.28124 437.01569 254.34375 445.78125 C 247.875 453.98442 244.625 463.00004 244.625 472.84375 C 244.625 479.31252 246.29688 484.56251 249.625 488.59375 C 253.18749 492.95313 258.14061 495.15625 264.46875 495.15625 C 269.24998 495.15625 273.92185 493.85938 278.46875 491.28125 L 277.40625 494.71875 L 300.96875 494.71875 C 305.56244 474.18753 311.82806 453.6563 319.75 433.125 L 296.1875 433.125 L 294.28125 439.3125 C 291.09371 434.85944 286.01559 432.62507 279.03125 432.625 z M 383.09375 433.125 L 364.375 494.71875 L 387.9375 494.71875 L 406.625 433.125 L 383.09375 433.125 z M 280.21875 448.3125 C 285.04684 448.31255 287.46871 450.76567 287.46875 455.6875 C 287.46871 459.39066 286.29684 462.65629 284 465.46875 C 281.51559 468.46878 278.48434 469.96878 274.875 469.96875 C 269.7656 469.96878 267.21873 467.40628 267.21875 462.25 C 267.21873 458.78129 268.53123 455.59379 271.15625 452.6875 C 273.78122 449.7813 276.79684 448.31255 280.21875 448.3125 z "
       style="font-size:144px;font-style:normal;font-variant:normal;font-weight:normal;font-stretch:normal;line-height:484.99999046%;letter-spacing:0px;word-spacing:0px;fill:#000000;fill-opacity:1;stroke:#000000;stroke-width:8;stroke-opacity:1;filter:url(#filter6379);font-family:Kool Beans;-inkscape-font-specification:Kool Beans"
       id="path6166-6"
       d="m 196.34375,373.5 c -12.60936,1.3e-4 -22.34373,6.84387 -29.1875,20.53125 2.4844,-3.37489 8.17189,-5.06239 17.03125,-5.0625 7.82813,1.1e-4 14.96875,4.39073 21.4375,13.15625 5.99998,8.10946 10.34373,28.15632 13.0625,60.125 -6.89064,14.06252 -14.68751,28.81251 -23.40625,44.28125 l 27.34375,0 c 13.35933,-37.45309 30.12494,-71.20306 50.28125,-101.25 l -30.21875,0 c -2.39067,6.79696 -5.06254,13.81258 -7.96875,21.03125 -1.96879,-9.79679 -5.15628,-19.65616 -9.5625,-29.59375 C 218.31248,381.25012 208.71874,373.50013 196.34375,373.5 z M 363.625,408.3125 c -7.87504,9e-5 -14.37504,3.48446 -19.4375,10.46875 -2.95315,4.0782 -6.20315,11.12507 -9.8125,21.15625 -4.31252,-0.0937 -8.48439,-0.23432 -12.46875,-0.46875 L 316,458.875 c 3.93749,-0.23433 8.04686,-0.40621 12.3125,-0.5 l -2.25,7.59375 -0.0625,0 c -5.34376,20.76564 -10.375,33.3125 -15.0625,37.625 -4.31249,3.93749 -9.28124,5.90624 -14.90625,5.90625 -6.56248,-10e-6 -11.18747,-0.70313 -13.90625,-2.0625 11.71877,11.71873 21.46876,17.59372 29.25,17.59375 7.3125,-3e-5 13.03124,-2.53127 17.15625,-7.59375 6.37498,-7.87501 13.0781,-24.56249 20.15625,-50.0625 l 0.0937,0 c 0.84371,-3.18746 1.67184,-6.17184 2.46875,-8.9375 4.12496,0.0938 8.35933,0.25004 12.71875,0.4375 l 5.90625,-19.40625 c -4.12505,0.18756 -8.1563,0.31256 -12.09375,0.40625 4.68745,-10.68743 11.73432,-16.03117 21.15625,-16.03125 2.29306,3e-5 4.05123,0.17777 5.875,0.34375 0.94694,1.11678 2.21632,2.12382 3.90625,2.96875 3.18748,1.59382 6.59372,2.37507 10.25,2.375 3.60934,7e-5 6.96871,-0.78118 10.0625,-2.375 3.84371,-1.96868 5.7812,-4.57805 5.78125,-7.8125 -5e-5,-3.37492 -1.76567,-6.01554 -5.28125,-7.9375 -2.85941,-1.54679 -6.14066,-2.31241 -9.84375,-2.3125 -3.75003,9e-5 -7.28127,0.76571 -10.5625,2.3125 -3.28284,1.52957 -5.17353,3.51738 -5.84375,5.9375 -7.53829,-5.94313 -14.11492,-9.03119 -19.65625,-9.03125 z m -84.59375,24.3125 c -9.51565,7e-5 -17.75001,4.39069 -24.6875,13.15625 -6.46875,8.20317 -9.71875,17.21879 -9.71875,27.0625 0,6.46877 1.67188,11.71876 5,15.75 3.56249,4.35938 8.51561,6.5625 14.84375,6.5625 4.78123,0 9.4531,-1.29687 14,-3.875 l -1.0625,3.4375 23.5625,0 C 305.56244,474.18753 311.82806,453.6563 319.75,433.125 l -23.5625,0 -1.90625,6.1875 c -3.18754,-4.45306 -8.26566,-6.68743 -15.25,-6.6875 z m 104.0625,0.5 -18.71875,61.59375 23.5625,0 18.6875,-61.59375 -23.53125,0 z m -102.875,15.1875 c 4.82809,5e-5 7.24996,2.45317 7.25,7.375 -4e-5,3.70316 -1.17191,6.96879 -3.46875,9.78125 -2.48441,3.00003 -5.51566,4.50003 -9.125,4.5 -5.1094,3e-5 -7.65627,-2.56247 -7.65625,-7.71875 -2e-5,-3.46871 1.31248,-6.65621 3.9375,-9.5625 2.62497,-2.9062 5.64059,-4.37495 9.0625,-4.375 z"
       transform="translate(-0.984375,6.09656)" />
    <path
       sodipodi:type="inkscape:offset"
       inkscape:radius="0"
       inkscape:original="M 196.34375 373.5 C 183.73439 373.50013 174.00002 380.34387 167.15625 394.03125 C 169.64065 390.65636 175.32814 388.96886 184.1875 388.96875 C 192.01563 388.96886 199.15625 393.35948 205.625 402.125 C 211.62498 410.23446 215.96873 430.28132 218.6875 462.25 C 211.79686 476.31252 203.99999 491.06251 195.28125 506.53125 L 222.625 506.53125 C 235.98433 469.07816 252.74994 435.32819 272.90625 405.28125 L 242.6875 405.28125 C 240.29683 412.07821 237.62496 419.09383 234.71875 426.3125 C 232.74996 416.51571 229.56247 406.65634 225.15625 396.71875 C 218.31248 381.25012 208.71874 373.50013 196.34375 373.5 z M 363.625 408.3125 C 355.74996 408.31259 349.24996 411.79696 344.1875 418.78125 C 341.23435 422.85945 337.98435 429.90632 334.375 439.9375 C 330.06248 439.84381 325.89061 439.70318 321.90625 439.46875 L 316 458.875 C 319.93749 458.64067 324.04686 458.46879 328.3125 458.375 L 326.0625 465.96875 L 326 465.96875 C 320.65624 486.73439 315.625 499.28125 310.9375 503.59375 C 306.62501 507.53124 301.65626 509.49999 296.03125 509.5 C 289.46877 509.49999 284.84378 508.79687 282.125 507.4375 C 293.84377 519.15623 303.59376 525.03122 311.375 525.03125 C 318.6875 525.03122 324.40624 522.49998 328.53125 517.4375 C 334.90623 509.56249 341.60935 492.87501 348.6875 467.375 L 348.78125 467.375 C 349.62496 464.18754 350.45309 461.20316 351.25 458.4375 C 355.37496 458.53129 359.60933 458.68754 363.96875 458.875 L 369.875 439.46875 C 365.74995 439.65631 361.7187 439.78131 357.78125 439.875 C 362.4687 429.18757 369.51557 423.84383 378.9375 423.84375 C 381.23056 423.84378 382.98873 424.02152 384.8125 424.1875 C 385.75944 425.30428 387.02882 426.31132 388.71875 427.15625 C 391.90623 428.75007 395.31247 429.53132 398.96875 429.53125 C 402.57809 429.53132 405.93746 428.75007 409.03125 427.15625 C 412.87496 425.18757 414.81245 422.5782 414.8125 419.34375 C 414.81245 415.96883 413.04683 413.32821 409.53125 411.40625 C 406.67184 409.85946 403.39059 409.09384 399.6875 409.09375 C 395.93747 409.09384 392.40623 409.85946 389.125 411.40625 C 385.84216 412.93582 383.95147 414.92363 383.28125 417.34375 C 375.74296 411.40062 369.16633 408.31256 363.625 408.3125 z M 279.03125 432.625 C 269.5156 432.62507 261.28124 437.01569 254.34375 445.78125 C 247.875 453.98442 244.625 463.00004 244.625 472.84375 C 244.625 479.31252 246.29688 484.56251 249.625 488.59375 C 253.18749 492.95313 258.14061 495.15625 264.46875 495.15625 C 269.24998 495.15625 273.92185 493.85938 278.46875 491.28125 L 277.40625 494.71875 L 300.96875 494.71875 C 305.56244 474.18753 311.82806 453.6563 319.75 433.125 L 296.1875 433.125 L 294.28125 439.3125 C 291.09371 434.85944 286.01559 432.62507 279.03125 432.625 z M 383.09375 433.125 L 364.375 494.71875 L 387.9375 494.71875 L 406.625 433.125 L 383.09375 433.125 z M 280.21875 448.3125 C 285.04684 448.31255 287.46871 450.76567 287.46875 455.6875 C 287.46871 459.39066 286.29684 462.65629 284 465.46875 C 281.51559 468.46878 278.48434 469.96878 274.875 469.96875 C 269.7656 469.96878 267.21873 467.40628 267.21875 462.25 C 267.21873 458.78129 268.53123 455.59379 271.15625 452.6875 C 273.78122 449.7813 276.79684 448.31255 280.21875 448.3125 z "
       style="font-size:144px;font-style:normal;font-variant:normal;font-weight:normal;font-stretch:normal;line-height:484.99999046%;letter-spacing:0px;word-spacing:0px;fill:#ffce9e;fill-opacity:1;stroke:#d18b47;stroke-width:3;stroke-opacity:1;font-family:Kool Beans;-inkscape-font-specification:Kool Beans"
       id="path6166"
       d="m 196.34375,373.5 c -12.60936,1.3e-4 -22.34373,6.84387 -29.1875,20.53125 2.4844,-3.37489 8.17189,-5.06239 17.03125,-5.0625 7.82813,1.1e-4 14.96875,4.39073 21.4375,13.15625 5.99998,8.10946 10.34373,28.15632 13.0625,60.125 -6.89064,14.06252 -14.68751,28.81251 -23.40625,44.28125 l 27.34375,0 c 13.35933,-37.45309 30.12494,-71.20306 50.28125,-101.25 l -30.21875,0 c -2.39067,6.79696 -5.06254,13.81258 -7.96875,21.03125 -1.96879,-9.79679 -5.15628,-19.65616 -9.5625,-29.59375 C 218.31248,381.25012 208.71874,373.50013 196.34375,373.5 z M 363.625,408.3125 c -7.87504,9e-5 -14.37504,3.48446 -19.4375,10.46875 -2.95315,4.0782 -6.20315,11.12507 -9.8125,21.15625 -4.31252,-0.0937 -8.48439,-0.23432 -12.46875,-0.46875 L 316,458.875 c 3.93749,-0.23433 8.04686,-0.40621 12.3125,-0.5 l -2.25,7.59375 -0.0625,0 c -5.34376,20.76564 -10.375,33.3125 -15.0625,37.625 -4.31249,3.93749 -9.28124,5.90624 -14.90625,5.90625 -6.56248,-10e-6 -11.18747,-0.70313 -13.90625,-2.0625 11.71877,11.71873 21.46876,17.59372 29.25,17.59375 7.3125,-3e-5 13.03124,-2.53127 17.15625,-7.59375 6.37498,-7.87501 13.0781,-24.56249 20.15625,-50.0625 l 0.0937,0 c 0.84371,-3.18746 1.67184,-6.17184 2.46875,-8.9375 4.12496,0.0938 8.35933,0.25004 12.71875,0.4375 l 5.90625,-19.40625 c -4.12505,0.18756 -8.1563,0.31256 -12.09375,0.40625 4.68745,-10.68743 11.73432,-16.03117 21.15625,-16.03125 2.29306,3e-5 4.05123,0.17777 5.875,0.34375 0.94694,1.11678 2.21632,2.12382 3.90625,2.96875 3.18748,1.59382 6.59372,2.37507 10.25,2.375 3.60934,7e-5 6.96871,-0.78118 10.0625,-2.375 3.84371,-1.96868 5.7812,-4.57805 5.78125,-7.8125 -5e-5,-3.37492 -1.76567,-6.01554 -5.28125,-7.9375 -2.85941,-1.54679 -6.14066,-2.31241 -9.84375,-2.3125 -3.75003,9e-5 -7.28127,0.76571 -10.5625,2.3125 -3.28284,1.52957 -5.17353,3.51738 -5.84375,5.9375 -7.53829,-5.94313 -14.11492,-9.03119 -19.65625,-9.03125 z m -84.59375,24.3125 c -9.51565,7e-5 -17.75001,4.39069 -24.6875,13.15625 -6.46875,8.20317 -9.71875,17.21879 -9.71875,27.0625 0,6.46877 1.67188,11.71876 5,15.75 3.56249,4.35938 8.51561,6.5625 14.84375,6.5625 4.78123,0 9.4531,-1.29687 14,-3.875 l -1.0625,3.4375 23.5625,0 C 305.56244,474.18753 311.82806,453.6563 319.75,433.125 l -23.5625,0 -1.90625,6.1875 c -3.18754,-4.45306 -8.26566,-6.68743 -15.25,-6.6875 z m 104.0625,0.5 -18.71875,61.59375 23.5625,0 18.6875,-61.59375 -23.53125,0 z m -102.875,15.1875 c 4.82809,5e-5 7.24996,2.45317 7.25,7.375 -4e-5,3.70316 -1.17191,6.96879 -3.46875,9.78125 -2.48441,3.00003 -5.51566,4.50003 -9.125,4.5 -5.1094,3e-5 -7.65627,-2.56247 -7.65625,-7.71875 -2e-5,-3.46871 1.31248,-6.65621 3.9375,-9.5625 2.62497,-2.9062 5.64059,-4.37495 9.0625,-4.375 z"
       transform="translate(-4,3)" />
    <path
       inkscape:connector-curvature="0"
       style="fill:#000000;fill-opacity:1;fill-rule:evenodd;stroke:#000000;stroke-width:1.96884656px;stroke-linecap:round;stroke-linejoin:round;stroke-opacity:1"
       d="m 370.84527,400.53781 c 0.75695,5.73186 -10.93288,14.50768 -15.75077,17.71961 -5.90654,3.9377 -5.55057,8.55049 -9.84423,7.87539 -2.05099,-1.85863 2.78282,-5.98047 0,-5.90654 -1.96885,0 0.36882,2.42509 -1.96885,3.93769 -1.96885,0 -7.88161,1.96885 -7.87539,-7.87538 0,-3.9377 11.81308,-23.62616 11.81308,-23.62616 0,0 3.71298,-3.745 3.9377,-6.89096 -1.42948,-1.95777 -0.98443,-3.9377 -0.98443,-5.90654 1.96885,-1.96885 5.90654,4.92211 5.90654,4.92211 l 3.9377,0 c 0,0 1.5392,-3.9218 4.92211,-5.90654 1.96885,0 1.96885,5.90654 1.96885,5.90654"
       id="path3495-4"
       sodipodi:nodetypes="csccccccccccc" />
    <path
       sodipodi:type="arc"
       style="fill:#000000;fill-opacity:1;stroke:#ffffff;stroke-width:1;stroke-linecap:round;stroke-linejoin:round;stroke-miterlimit:4;stroke-opacity:1;stroke-dasharray:none"
       id="path3499-9"
       sodipodi:cx="8.5"
       sodipodi:cy="23.5"
       sodipodi:rx="0.5"
       sodipodi:ry="0.5"
       d="M 9,23.5 C 9,23.776142 8.7761424,24 8.5,24 8.2238576,24 8,23.776142 8,23.5 8,23.223858 8.2238576,23 8.5,23 8.7761424,23 9,23.223858 9,23.5 z"
       transform="matrix(1.9688466,0,0,1.9688466,324.57738,369.03626)" />
    <path
       sodipodi:type="arc"
       style="fill:#000000;fill-opacity:1;stroke:#ffffff;stroke-width:1;stroke-linecap:round;stroke-linejoin:round;stroke-miterlimit:4;stroke-opacity:1;stroke-dasharray:none"
       id="path3501-3"
       sodipodi:cx="14.5"
       sodipodi:cy="15.5"
       sodipodi:rx="0.5"
       sodipodi:ry="1.5"
       d="M 15,15.5 C 15,16.328427 14.776142,17 14.5,17 14.223858,17 14,16.328427 14,15.5 14,14.671573 14.223858,14 14.5,14 c 0.276142,0 0.5,0.671573 0.5,1.5 z"
       transform="matrix(1.7050704,0.9844233,-0.9844233,1.7050704,342.67626,354.91296)" />
    <path
       inkscape:connector-curvature="0"
       style="fill:#ffffff;fill-opacity:1;fill-rule:evenodd;stroke:#000000;stroke-width:3.2000227;stroke-linecap:round;stroke-linejoin:round;stroke-miterlimit:4;stroke-opacity:1;stroke-dasharray:none"
       d="m 243.70028,398.68768 c -0.82019,6.21077 11.84635,15.71983 17.06679,19.20013 6.40005,4.2667 6.01433,9.2649 10.66674,8.5334 2.22235,-2.01393 -3.01533,-6.48016 0,-6.40005 2.13335,0 -0.39964,2.62771 2.13335,4.2667 2.13335,0 8.54014,2.13335 8.5334,-8.5334 0,-4.26669 -12.8001,-25.60018 -12.8001,-25.60018 0,0 -4.0232,-4.0579 -4.26669,-7.46672 1.54891,-2.12134 1.06667,-4.26669 1.06667,-6.40004 -2.13335,-2.13335 -6.40004,5.33337 -6.40004,5.33337 l -4.2667,0 c 0,0 -1.66781,-4.24948 -5.33337,-6.40005 -2.13335,0 -2.13335,6.40005 -2.13335,6.40005"
       id="path3495"
       sodipodi:nodetypes="csccccccccccc" />
    <path
       sodipodi:type="arc"
       style="fill:#000000;fill-opacity:1;stroke:#000000;stroke-width:1.5;stroke-linecap:round;stroke-linejoin:round;stroke-miterlimit:4;stroke-opacity:1;stroke-dasharray:none"
       id="path3499"
       sodipodi:cx="8.5"
       sodipodi:cy="23.5"
       sodipodi:rx="0.5"
       sodipodi:ry="0.5"
       d="M 9,23.5 C 9,23.776142 8.7761424,24 8.5,24 8.2238576,24 8,23.776142 8,23.5 8,23.223858 8.2238576,23 8.5,23 8.7761424,23 9,23.223858 9,23.5 z"
       transform="matrix(-2.1333485,0,0,2.1333485,293.83397,364.5541)" />
    <path
       sodipodi:type="arc"
       style="fill:#000000;fill-opacity:1;stroke:#000000;stroke-width:1.50000048;stroke-linecap:round;stroke-linejoin:round;stroke-miterlimit:4;stroke-opacity:1;stroke-dasharray:none"
       id="path3501"
       sodipodi:cx="14.5"
       sodipodi:cy="15.5"
       sodipodi:rx="0.5"
       sodipodi:ry="1.5"
       d="M 15,15.5 C 15,16.328427 14.776142,17 14.5,17 14.223858,17 14,16.328427 14,15.5 14,14.671573 14.223858,14 14.5,14 c 0.276142,0 0.5,0.671573 0.5,1.5 z"
       transform="matrix(-1.8475331,1.0666742,1.0666742,1.8475331,274.22288,349.25076)" />
    <text
       xml:space="preserve"
       style="font-size:144px;font-style:normal;font-variant:normal;font-weight:normal;font-stretch:normal;line-height:484.99999045999999000%;letter-spacing:0px;word-spacing:0px;fill:#ffffff;fill-opacity:1;stroke:none;font-family:Estrangelo Edessa;-inkscape-font-specification:Estrangelo Edessa"
       x="473.42163"
       y="499.88202"
       id="text3821"
       sodipodi:linespacing="484.99999%"><tspan
         sodipodi:role="line"
         id="tspan3823"
         x="473.42163"
         y="499.88202">without ads</tspan></text>
    <text
       xml:space="preserve"
       style="font-size:100px;font-style:normal;font-variant:normal;font-weight:normal;font-stretch:normal;text-align:center;line-height:85.00000238%;letter-spacing:0px;word-spacing:0px;text-anchor:middle;fill:#ef2929;fill-opacity:1;stroke:none;font-family:Estrangelo Edessa;-inkscape-font-specification:Estrangelo Edessa"
       x="1329.78"
       y="437.88205"
       id="text3833"
       sodipodi:linespacing="85.000002%"><tspan
         sodipodi:role="line"
         x="1329.78"
         y="437.88205"
         id="tspan3837">Click</tspan><tspan
         sodipodi:role="line"
         x="1329.78"
         y="522.88208"
         id="tspan3845">to get</tspan></text>
    <text
       xml:space="preserve"
       style="font-size:50px;font-style:normal;font-variant:normal;font-weight:normal;font-stretch:normal;line-height:484.99999046%;letter-spacing:0px;word-spacing:0px;fill:#000000;fill-opacity:1;stroke:none;font-family:Estrangelo Edessa;-inkscape-font-specification:Estrangelo Edessa"
       x="399"
       y="171.03999"
       id="text3839"
       sodipodi:linespacing="484.99999%"
       transform="translate(138.42161,353.84205)"><tspan
         sodipodi:role="line"
         id="tspan3841"
         x="399"
         y="171.03999" /></text>
  </g>
</svg>
