<?xml version="1.0" encoding="UTF-8" standalone="no"?>
<!-- Created with Inkscape (http://www.inkscape.org/) -->

<svg
   xmlns:dc="http://purl.org/dc/elements/1.1/"
   xmlns:cc="http://creativecommons.org/ns#"
   xmlns:rdf="http://www.w3.org/1999/02/22-rdf-syntax-ns#"
   xmlns:svg="http://www.w3.org/2000/svg"
   xmlns="http://www.w3.org/2000/svg"
   xmlns:sodipodi="http://sodipodi.sourceforge.net/DTD/sodipodi-0.dtd"
   xmlns:inkscape="http://www.inkscape.org/namespaces/inkscape"
   width="320"
   height="320"
   id="svg2"
   version="1.1"
   inkscape:version="0.48.2 r9819"
   sodipodi:docname="board_with_android.svg">
  <defs
     id="defs4" />
  <sodipodi:namedview
     id="base"
     pagecolor="#ffffff"
     bordercolor="#666666"
     borderopacity="1.0"
     inkscape:pageopacity="0.0"
     inkscape:pageshadow="2"
     inkscape:zoom="2"
     inkscape:cx="164.33956"
     inkscape:cy="162.36502"
     inkscape:document-units="px"
     inkscape:current-layer="g3996"
     showgrid="false"
     inkscape:window-width="1440"
     inkscape:window-height="838"
     inkscape:window-x="-8"
     inkscape:window-y="-8"
     inkscape:window-maximized="1" />
  <metadata
     id="metadata7">
    <rdf:RDF>
      <cc:Work
         rdf:about="">
        <dc:format>image/svg+xml</dc:format>
        <dc:type
           rdf:resource="http://purl.org/dc/dcmitype/StillImage" />
        <dc:title />
      </cc:Work>
    </rdf:RDF>
  </metadata>
  <g
     inkscape:label="Layer 1"
     inkscape:groupmode="layer"
     id="layer1"
     transform="translate(0,-732.36218)">
    <g
       id="g3996"
       transform="translate(130,-97)">
      <g
         id="g4031"
         transform="translate(-130,96.999997)">
        <rect
           style="fill:#d18b47;fill-opacity:1;stroke:none"
           id="rect2987"
           width="320"
           height="320"
           x="0"
           y="732.36218" />
        <rect
           style="fill:#ffce9e;fill-opacity:1;stroke:none"
           id="rect2985"
           width="40"
           height="40"
           x="80"
           y="772.36218" />
        <rect
           style="fill:#ffce9e;fill-opacity:1;stroke:none"
           id="rect2985-1"
           width="40"
           height="40"
           x="80"
           y="852.36218" />
        <rect
           style="fill:#ffce9e;fill-opacity:1;stroke:none"
           id="rect2985-7"
           width="40"
           height="40"
           x="80"
           y="932.36218" />
        <rect
           style="fill:#ffce9e;fill-opacity:1;stroke:none"
           id="rect2985-4"
           width="40"
           height="40"
           x="80"
           y="1012.3622" />
        <rect
           style="fill:#ffce9e;fill-opacity:1;stroke:none"
           id="rect2985-0"
           width="40"
           height="40"
           x="40"
           y="732.36218" />
        <rect
           style="fill:#ffce9e;fill-opacity:1;stroke:none"
           id="rect2985-9"
           width="40"
           height="40"
           x="40"
           y="812.36218" />
        <rect
           style="fill:#ffce9e;fill-opacity:1;stroke:none"
           id="rect2985-48"
           width="40"
           height="40"
           x="40"
           y="892.36218" />
        <rect
           style="fill:#ffce9e;fill-opacity:1;stroke:none"
           id="rect2985-8"
           width="40"
           height="40"
           x="40"
           y="972.36218" />
        <rect
           style="fill:#ffce9e;fill-opacity:1;stroke:none"
           id="rect2985-2"
           width="40"
           height="40"
           x="0"
           y="772.36218" />
        <rect
           style="fill:#ffce9e;fill-opacity:1;stroke:none"
           id="rect2985-45"
           width="40"
           height="40"
           x="0"
           y="852.36218" />
        <rect
           style="fill:#ffce9e;fill-opacity:1;stroke:none"
           id="rect2985-5"
           width="40"
           height="40"
           x="0"
           y="932.36218" />
        <rect
           ry="0"
           style="fill:#ffce9e;fill-opacity:1;stroke:none"
           id="rect2985-17"
           width="40"
           height="40"
           x="0"
           y="1012.3622" />
        <rect
           style="fill:#ffce9e;fill-opacity:1;stroke:none"
           id="rect2985-11"
           width="40"
           height="40"
           x="200"
           y="812.36218" />
        <rect
           style="fill:#ffce9e;fill-opacity:1;stroke:none"
           id="rect2985-52"
           width="40"
           height="40"
           x="200"
           y="892.36218" />
        <rect
           style="fill:#ffce9e;fill-opacity:1;stroke:none"
           id="rect2985-76"
           width="40"
           height="40"
           x="240"
           y="852.36218" />
        <rect
           style="fill:#ffce9e;fill-opacity:1;stroke:none"
           id="rect2985-14"
           width="40"
           height="40"
           x="240"
           y="932.36218" />
        <rect
           style="fill:#ffce9e;fill-opacity:1;stroke:none"
           id="rect2985-23"
           width="40"
           height="40"
           x="240"
           y="1012.3622" />
        <rect
           style="fill:#ffce9e;fill-opacity:1;stroke:none"
           id="rect2985-22"
           width="40"
           height="40"
           x="160"
           y="772.36218" />
        <rect
           style="fill:#ffce9e;fill-opacity:1;stroke:none"
           id="rect2985-16"
           width="40"
           height="40"
           x="160"
           y="1012.3622" />
        <rect
           style="fill:#ffce9e;fill-opacity:1;stroke:none"
           id="rect2985-85"
           width="40"
           height="40"
           x="160"
           y="932.36218" />
        <rect
           style="fill:#ffce9e;fill-opacity:1;stroke:none"
           id="rect2985-761"
           width="40"
           height="40"
           x="160"
           y="852.36218" />
        <rect
           style="fill:#ffce9e;fill-opacity:1;stroke:none"
           id="rect2985-89"
           width="40"
           height="40"
           x="240"
           y="772.36218" />
        <rect
           style="fill:#ffce9e;fill-opacity:1;stroke:none"
           id="rect2985-27"
           width="40"
           height="40"
           x="280"
           y="732.36218" />
        <rect
           style="fill:#ffce9e;fill-opacity:1;stroke:none"
           id="rect2985-95"
           width="40"
           height="40"
           x="280"
           y="812.36218" />
        <rect
           style="fill:#ffce9e;fill-opacity:1;stroke:none"
           id="rect2985-43"
           width="40"
           height="40"
           x="280"
           y="892.36218" />
        <rect
           style="fill:#ffce9e;fill-opacity:1;stroke:none"
           id="rect2985-12"
           width="40"
           height="40"
           x="280"
           y="972.36218" />
        <rect
           style="fill:#ffce9e;fill-opacity:1;stroke:none"
           id="rect2985-3"
           width="40"
           height="40"
           x="200"
           y="732.36218" />
        <rect
           style="fill:#ffce9e;fill-opacity:1;stroke:none"
           id="rect2985-34"
           width="40"
           height="40"
           x="200"
           y="972.36218" />
        <rect
           style="fill:#ffce9e;fill-opacity:1;stroke:none"
           id="rect2985-113"
           width="40"
           height="40"
           x="120"
           y="732.36218" />
        <rect
           style="fill:#ffce9e;fill-opacity:1;stroke:none"
           id="rect2985-87"
           width="40"
           height="40"
           x="120"
           y="812.36218" />
        <rect
           style="fill:#ffce9e;fill-opacity:1;stroke:none"
           id="rect2985-42"
           width="40"
           height="40"
           x="120"
           y="892.36218" />
        <rect
           style="fill:#ffce9e;fill-opacity:1;stroke:none"
           id="rect2985-77"
           width="40"
           height="40"
           x="120"
           y="972.36218" />
      </g>
      <g
         id="g3040"
         transform="matrix(0.51210973,0,0,0.51210973,-97.801111,848.45897)">
        <g
           display="none"
           id="max_width__x2F__height"
           style="display:none">
          <path
             id="path3019"
             d="M 499.001,1 V 499 H 1 V 1 h 498.001 m 1,-1 H 0 V 500 H 500.001 V 0 l 0,0 z"
             display="inline"
             inkscape:connector-curvature="0"
             style="display:inline" />
        </g>
        <g
           id="androd">
          <path
             id="path3022"
             d="m 301.314,83.298 20.159,-29.272 c 1.197,-1.74 0.899,-4.024 -0.666,-5.104 -1.563,-1.074 -3.805,-0.543 -4.993,1.199 L 294.863,80.53 c -13.807,-5.439 -29.139,-8.47 -45.299,-8.47 -16.16,0 -31.496,3.028 -45.302,8.47 L 183.314,50.12 c -1.201,-1.74 -3.439,-2.273 -5.003,-1.199 -1.564,1.077 -1.861,3.362 -0.664,5.104 l 20.166,29.272 c -32.063,14.916 -54.548,43.26 -57.413,76.34 h 218.316 c -2.855,-33.08 -25.341,-61.423 -57.402,-76.339"
             inkscape:connector-curvature="0"
             style="fill:#9fbf3b" />
          <path
             id="path3024"
             d="m 203.956,129.438 c -6.673,0 -12.08,-5.407 -12.08,-12.079 0,-6.671 5.404,-12.08 12.08,-12.08 6.668,0 12.073,5.407 12.073,12.08 0.001,6.671 -5.405,12.079 -12.073,12.079"
             inkscape:connector-curvature="0"
             style="fill:#ffffff" />
          <path
             id="path3026"
             d="m 295.161,129.438 c -6.668,0 -12.074,-5.407 -12.074,-12.079 0,-6.673 5.406,-12.08 12.074,-12.08 6.675,0 12.079,5.409 12.079,12.08 0,6.671 -5.406,12.079 -12.079,12.079"
             inkscape:connector-curvature="0"
             style="fill:#ffffff" />
          <path
             id="path3028"
             d="m 126.383,297.598 c 0,13.45 -10.904,24.354 -24.355,24.354 l 0,0 c -13.45,0 -24.354,-10.904 -24.354,-24.354 V 199.09 c 0,-13.45 10.904,-24.354 24.354,-24.354 l 0,0 c 13.451,0 24.355,10.904 24.355,24.354 v 98.508 z"
             inkscape:connector-curvature="0"
             style="fill:#9fbf3b" />
          <path
             id="path3030"
             d="m 140.396,175.489 v 177.915 c 0,10.566 8.566,19.133 19.135,19.133 h 22.633 v 54.744 c 0,13.451 10.903,24.354 24.354,24.354 13.451,0 24.355,-10.903 24.355,-24.354 v -54.744 h 37.371 v 54.744 c 0,13.451 10.902,24.354 24.354,24.354 13.452,0 24.354,-10.903 24.354,-24.354 v -54.744 h 22.633 c 10.569,0 19.137,-8.562 19.137,-19.133 V 175.489 H 140.396 z"
             inkscape:connector-curvature="0"
             style="fill:#9fbf3b" />
          <path
             id="path3032"
             d="m 372.734,297.598 c 0,13.45 10.903,24.354 24.354,24.354 l 0,0 c 13.45,0 24.354,-10.904 24.354,-24.354 V 199.09 c 0,-13.45 -10.904,-24.354 -24.354,-24.354 l 0,0 c -13.451,0 -24.354,10.904 -24.354,24.354 v 98.508 z"
             inkscape:connector-curvature="0"
             style="fill:#9fbf3b" />
        </g>
      </g>
    </g>
  </g>
</svg>
