<?xml version="1.0" encoding="UTF-8" standalone="no"?>
<!-- Created with Inkscape (http://www.inkscape.org/) -->

<svg
   xmlns:dc="http://purl.org/dc/elements/1.1/"
   xmlns:cc="http://creativecommons.org/ns#"
   xmlns:rdf="http://www.w3.org/1999/02/22-rdf-syntax-ns#"
   xmlns:svg="http://www.w3.org/2000/svg"
   xmlns="http://www.w3.org/2000/svg"
   xmlns:sodipodi="http://sodipodi.sourceforge.net/DTD/sodipodi-0.dtd"
   xmlns:inkscape="http://www.inkscape.org/namespaces/inkscape"
   width="160"
   height="160"
   id="svg2"
   version="1.1"
   inkscape:version="0.48.2 r9819"
   sodipodi:docname="icon_knight_3.svg"
   inkscape:export-filename="C:\Programming\eclipse\Yafi.2012-04-15.backup\other\art\icon\ico72_4.png"
   inkscape:export-xdpi="40.5"
   inkscape:export-ydpi="40.5">
  <defs
     id="defs4">
    <clipPath
       clipPathUnits="userSpaceOnUse"
       id="clipPath5618">
      <path
         sodipodi:type="inkscape:offset"
         inkscape:radius="9.6005774"
         inkscape:original="M 230.5625 493.96875 C 213.99009 494.08234 202.99564 496.89788 197.53125 502.4375 C 192.00108 508.04406 189.92652 515.11616 191.34375 523.625 C 192.17331 528.59135 194.89314 535.85476 199.5 545.46875 C 196.40484 548.47317 193.37116 551.32804 190.40625 554 L 200.09375 571.84375 C 202.69202 568.87596 205.44624 565.82146 208.375 562.71875 L 212.1875 569.65625 L 212.15625 569.71875 C 223.18733 588.10578 228.59658 600.47812 228.375 606.84375 C 228.14979 612.67905 226.0439 617.58912 222.09375 621.59375 C 217.48526 626.26578 213.75203 629.08153 210.875 630.0625 C 227.44743 629.94899 238.47312 627.13345 243.9375 621.59375 C 249.07267 616.38773 251.26986 610.55434 250.5625 604.0625 C 249.43285 593.99374 242.2774 577.47775 229.09375 554.53125 L 229.15625 554.46875 C 227.47949 551.62969 225.94058 548.97828 224.53125 546.46875 C 227.49477 543.59792 230.55515 540.65947 233.75 537.6875 L 224.09375 519.84375 C 221.33047 522.91222 218.60462 525.88101 215.90625 528.75 C 211.58928 517.90762 212.72727 509.14533 219.34375 502.4375 C 223.95226 497.76555 227.68548 494.9498 230.5625 493.96875 z M 119.375 494.15625 C 109.78011 494.00619 100.99422 498.69568 93 508.21875 C 96.201096 505.5141 102.10224 505.18994 110.71875 507.25 C 118.33226 509.07047 124.27817 515.00177 128.53125 525.03125 C 132.48097 534.31365 132.07106 554.80672 127.28125 586.53125 C 117.30938 598.60591 106.26435 611.13903 94.1875 624.15625 L 120.8125 630.53125 C 142.51501 597.21148 166.65909 568.28607 193.25 543.75 L 163.84375 536.71875 C 159.93804 542.77345 155.72393 548.96753 151.21875 555.3125 C 151.58209 545.32645 150.78702 535.0023 148.8125 524.3125 C 145.75344 507.67646 138.19196 497.90907 126.15625 495.03125 C 123.8568 494.48149 121.5892 494.19088 119.375 494.15625 z M 246.65625 494.90625 C 243.41232 495.12006 240.1967 496.21527 237.0625 498.1875 C 233.88867 500.18488 231.32827 502.7245 229.375 505.78125 C 226.9074 509.60495 226.57119 512.90203 228.34375 515.71875 C 230.11637 518.53562 233.12947 519.73319 237.40625 519.3125 C 240.95289 518.96376 244.28051 517.82243 247.375 515.875 C 250.42984 513.95269 252.85543 511.49673 254.625 508.5 C 256.82962 504.78659 257.06641 501.58129 255.34375 498.84375 C 253.5462 495.98738 250.65535 494.66049 246.65625 494.90625 z M 255.78125 514.84375 L 235.84375 527.375 L 252.8125 589.46875 L 272.75 576.9375 L 255.78125 514.84375 z M 186.5 557.96875 L 170.21875 575 L 173.40625 580.65625 C 167.98435 579.88605 162.85493 582.01146 158.03125 587.0625 C 151.45945 593.94429 148.952 602.92898 150.5 614 C 151.965 624.34362 156.256 632.92033 163.375 639.71875 C 168.05323 644.18631 173.00483 646.59154 178.21875 646.96875 C 183.83185 647.40309 188.81706 645.35778 193.1875 640.78125 C 196.48959 637.32346 198.78676 633.03763 200.0625 627.96875 L 201.8125 631.125 L 218.09375 614.09375 C 206.41808 596.59198 195.87711 577.87757 186.5 557.96875 z M 175.28125 594.375 C 177.00475 594.3519 178.7515 595.20667 180.53125 596.90625 C 183.20936 599.46382 184.77105 602.55278 185.21875 606.15625 C 185.67256 610.02491 184.64901 613.26473 182.15625 615.875 C 178.62754 619.57015 175.01027 619.62363 171.28125 616.0625 C 168.77266 613.6669 167.38265 610.49936 167.09375 606.59375 C 166.80488 602.68824 167.82425 599.50602 170.1875 597.03125 C 171.85474 595.28543 173.55775 594.39812 175.28125 594.375 z "
         style="font-size:144px;font-style:normal;font-variant:normal;font-weight:normal;font-stretch:normal;line-height:484.99999046%;letter-spacing:0px;word-spacing:0px;fill:#729fcf;fill-opacity:1;stroke:#204a87;stroke-width:2;stroke-opacity:1;font-family:Kool Beans;-inkscape-font-specification:Kool Beans"
         id="path5620"
         d="m 230.5,484.375 c -17.63061,0.12084 -30.96894,2.34719 -39.8125,11.3125 -7.52168,7.62558 -10.62084,18.64301 -8.8125,29.5 a 9.6015374,9.6015374 0 0 0 0,0.0312 c 0.33662,2.01524 0.89884,4.12208 1.5625,6.3125 l -17.375,-4.15625 a 9.6015374,9.6015374 0 0 0 -7.03125,1.0625 c -0.29049,-1.96452 -0.41511,-3.89277 -0.78125,-5.875 -3.44709,-18.74625 -13.94529,-33.0661 -29.875,-36.875 -2.94357,-0.70376 -5.8923,-1.07884 -8.84375,-1.125 -12.81355,-0.2004 -24.651544,6.48136 -33.875,17.46875 A 9.6015374,9.6015374 0 0 0 99.1875,515.5625 c -0.953134,0.80532 1.88167,-0.74533 9.3125,1.03125 4.12583,0.98653 7.65887,3.8664 11.1875,12.1875 1.80619,4.24479 2.64524,24.08795 -1.59375,53.71875 -9.3869,11.27687 -19.651453,22.96016 -30.9375,35.125 A 9.6015374,9.6015374 0 0 0 91.9375,633.5 l 26.625,6.375 a 9.6015374,9.6015374 0 0 0 10.28125,-4.09375 c 4.10047,-6.29544 8.38378,-12.28164 12.65625,-18.25 2.04194,11.28148 7.14114,21.38129 15.25,29.125 5.86487,5.60076 13.03494,9.30213 20.71875,9.875 0.0206,0.002 0.0419,-0.001 0.0625,0 8.3397,0.62421 16.70635,-2.95998 22.59375,-9.125 2.13121,-2.2317 3.93957,-4.73685 5.4375,-7.4375 a 9.6015374,9.6015374 0 0 0 1.78125,-1 9.6015374,9.6015374 0 0 0 3.59375,0.6875 c 17.63057,-0.12076 30.98735,-2.33403 39.84375,-11.3125 6.6916,-6.78393 10.31884,-16.07677 9.3125,-25.3125 a 9.6015374,9.6015374 0 0 0 0,-0.0312 C 259.87513,601.05142 259.48231,598.99882 259,596.90625 L 277.84375,585.0625 A 9.6015374,9.6015374 0 0 0 282,574.40625 L 265.03125,512.3125 a 9.6015374,9.6015374 0 0 0 -0.8125,-2 c 2.04463,-5.23553 2.35476,-11.65987 -0.75,-16.59375 -3.55507,-5.64912 -11.01277,-8.79915 -17.40625,-8.40625 a 9.6015374,9.6015374 0 0 0 -0.0312,0 c -2.92236,0.19261 -5.76302,0.99606 -8.5,2.0625 a 9.6015374,9.6015374 0 0 0 -7.03125,-3 z"
         transform="translate(-30,310)" />
    </clipPath>
    <clipPath
       clipPathUnits="userSpaceOnUse"
       id="clipPath6097">
      <path
         style="font-size:144px;font-style:normal;font-variant:normal;font-weight:normal;font-stretch:normal;line-height:484.99999046%;letter-spacing:0px;word-spacing:0px;fill:#72b3cf;fill-opacity:1;stroke:#000000;stroke-width:1.53110051;stroke-opacity:1;font-family:Kool Beans;-inkscape-font-specification:Kool Beans"
         d="m 92.15311,768.16147 c -18.923062,1.9e-4 -37.205726,13.7657 -45.263158,29.88038 -2.247571,4.52539 -3.114312,9.72525 -2.456107,14.73499 0.658212,5.00974 2.838722,9.80924 6.178978,13.60047 3.340256,3.79123 7.82684,6.55896 12.713761,7.843 4.886913,1.28404 10.154541,1.07923 14.927005,-0.58037 1.053994,4.28507 3.201393,12.19892 4.688995,23.30143 -4.231648,8.35861 -8.784176,16.98242 -13.923445,26.10048 -2.185531,3.87653 -3.336238,8.33029 -3.30204,12.78034 0.03422,4.45004 1.253236,8.88558 3.498097,12.72806 4.489715,7.68497 13.224169,12.6977 22.124517,12.69734 l 20.933017,0 c 8.95119,-0.0164 17.72229,-5.10684 22.17703,-12.87081 5.70956,2.66741 11.90023,4.16268 17.51196,4.16268 0.4324,0 0.85997,-0.0826 1.29187,-0.0957 0.54745,0.69134 1.13062,1.3544 1.74641,1.98564 10.96808,10.96804 21.64992,20.98079 40.50239,20.98086 11.51026,-4e-5 25.13354,-5.59131 33.01436,-15.26315 0.016,-0.0159 0.0319,-0.0318 0.0478,-0.0478 2.48077,-3.06448 4.57568,-6.20429 6.43541,-9.44976 2.79859,1.02215 5.77657,1.55103 8.75598,1.55502 l 18.03828,0 c 5.45025,7.1e-4 10.88596,-1.79426 15.26404,-5.04043 4.37807,-3.24619 7.67478,-7.926 9.25749,-13.14139 l 13.7799,-45.40669 c 4.42932,-5.49424 7.8707,-12.51706 7.87082,-19.73685 -1.7e-4,-11.36079 -9.09861,-24.05658 -17.3445,-28.56459 -0.0318,-0.016 -0.0638,-0.0319 -0.0957,-0.0478 -6.36022,-3.44053 -13.39495,-4.8563 -19.76077,-4.85646 -5.57362,1.3e-4 -11.40183,1.15117 -16.74641,3.30144 -5.30278,-2.42405 -11.31725,-3.89944 -18.51675,-3.89952 -13.58568,1.5e-4 -28.01251,8.14719 -35.59808,18.61244 -0.22694,0.31339 -0.38096,0.62146 -0.59809,0.93301 -1.65889,-0.34981 -3.35256,-0.53443 -5.04785,-0.55024 l -18.03827,0 c -0.0797,-3.7e-4 -0.15949,-3.7e-4 -0.23924,0 -1.00504,-5.89458 -4.14985,-11.4006 -8.71644,-15.26097 -4.56659,-3.86037 -10.51923,-6.0449 -16.49887,-6.05482 l -18.0622,0 c -8.97687,-13.39174 -23.89908,-24.32996 -40.55024,-24.33014 z"
         id="path6099"
         inkscape:connector-curvature="0"
         sodipodi:nodetypes="ccssscccsscccsccscccccssccccccccccccsccc" />
    </clipPath>
    <clipPath
       clipPathUnits="userSpaceOnUse"
       id="clipPath6321">
      <path
         id="path6323"
         style="font-size:144px;font-style:normal;font-variant:normal;font-weight:normal;font-stretch:normal;line-height:484.99999046%;letter-spacing:0px;word-spacing:0px;fill:#000000;fill-opacity:1;stroke:none;font-family:Kool Beans;-inkscape-font-specification:Kool Beans"
         d="m 58.35937,778.40906 c -19.5505,2e-4 -37.38979,13.21728 -46.34375,31.125 -2.00714,4.00576 -2.54856,8.72628 -1.50048,13.08245 1.04808,4.35617 3.67742,8.31381 7.28697,10.96822 3.60955,2.6544 8.17097,3.98474 12.64154,3.6869 4.47057,-0.29785 8.8152,-2.22154 12.04072,-5.33132 -1.83381,1.79907 -1.25804,0.31256 3.71875,0.3125 0.65523,1e-5 1.71895,-0.42606 6,5.375 0.0104,1e-5 0.0208,1e-5 0.0312,0 -0.33617,-0.45436 5.78168,17.50529 8.71875,45.28125 -6.1049,12.2225 -12.82854,24.92361 -20.375,38.3125 -3.26666,5.80541 -3.20427,13.34165 0.15806,19.09218 3.36233,5.75053 9.89932,9.50108 16.56069,9.50157 l 27.34375,0 c 7.85411,-0.005 15.42797,-5.35092 18.0625,-12.75 0.657,-1.8419 1.42015,-3.55294 2.09375,-5.375 6.43688,4.20263 14.12046,6.66747 21.4375,6.71875 0.96004,2.49963 2.45041,4.79412 4.3438,6.6875 13.21391,13.21386 25.37537,23.21868 42.8125,23.21875 11.7394,-5e-5 24.39981,-5.29044 32.03125,-14.65625 0.0104,-0.0208 0.0208,-0.0417 0.0312,-0.0625 4.26516,-5.26874 7.65207,-11.52352 10.78125,-18.53125 3.02369,1.89863 6.5859,2.92893 10.15625,2.9375 l 23.5625,0 c 4.07948,-0.004 8.14662,-1.35124 11.42154,-3.78372 3.27492,-2.43248 5.73989,-5.9369 6.92221,-9.84128 l 18.6875,-61.59375 c 0.0105,-0.0312 0.0209,-0.0625 0.0313,-0.0937 4.94018,-4.97141 8.99989,-11.84242 9,-19.25 -1.5e-4,-10.06546 -7.64854,-20.60846 -15.28125,-24.78125 -0.0208,-0.0104 -0.0417,-0.0208 -0.0625,-0.0312 -5.93126,-3.2085 -12.62178,-4.62485 -18.96875,-4.625 -6.02233,1.4e-4 -12.15773,1.29982 -17.78125,3.78125 -5.50101,-2.73835 -11.41215,-4.56243 -18.28125,-4.5625 -13.5335,1.5e-4 -27.10629,7.55903 -34.96875,18.40625 -1.60473,2.21608 -2.97075,4.57209 -4.28125,7 -1.50992,-0.38475 -3.06686,-0.58463 -4.625,-0.59375 l -23.5625,0 c -2.18039,0.0176 -4.35726,0.41053 -6.40625,1.15625 -0.11719,-0.0319 -0.22643,-0.0942 -0.34375,-0.125 3.38942,-5.79226 3.42548,-13.39769 0.0911,-19.22181 -3.33437,-5.82413 -9.91128,-9.64357 -16.62234,-9.65319 l -30.21875,0 c -0.47972,0.003 -0.95934,0.0237 -1.4375,0.0625 -8.96418,-17.9879 -25.53772,-31.84355 -44.90625,-31.84375 z"
         inkscape:connector-curvature="0"
         sodipodi:nodetypes="ccsssccccccscccccsscccccscccccccccccccccsccccc"
         clip-path="none" />
    </clipPath>
    <filter
       inkscape:collect="always"
       id="filter3936">
      <feGaussianBlur
         inkscape:collect="always"
         stdDeviation="3.1656251"
         id="feGaussianBlur3938" />
    </filter>
    <filter
       inkscape:collect="always"
       id="filter3980">
      <feGaussianBlur
         inkscape:collect="always"
         stdDeviation="1.7908594"
         id="feGaussianBlur3982" />
    </filter>
    <filter
       inkscape:collect="always"
       id="filter3825">
      <feGaussianBlur
         inkscape:collect="always"
         stdDeviation="1.5980273"
         id="feGaussianBlur3827" />
    </filter>
    <filter
       inkscape:collect="always"
       id="filter3890">
      <feGaussianBlur
         inkscape:collect="always"
         stdDeviation="1.6580273"
         id="feGaussianBlur3892" />
    </filter>
  </defs>
  <sodipodi:namedview
     id="base"
     pagecolor="#ffffff"
     bordercolor="#666666"
     borderopacity="1.0"
     inkscape:pageopacity="0.0"
     inkscape:pageshadow="2"
     inkscape:zoom="2.5"
     inkscape:cx="60.49805"
     inkscape:cy="60.087511"
     inkscape:document-units="px"
     inkscape:current-layer="layer1"
     showgrid="false"
     fit-margin-top="0"
     fit-margin-left="0"
     fit-margin-right="0"
     fit-margin-bottom="0"
     showborder="true"
     inkscape:showpageshadow="false"
     borderlayer="false"
     inkscape:window-width="1440"
     inkscape:window-height="838"
     inkscape:window-x="-8"
     inkscape:window-y="-8"
     inkscape:window-maximized="1" />
  <metadata
     id="metadata7">
    <rdf:RDF>
      <cc:Work
         rdf:about="">
        <dc:format>image/svg+xml</dc:format>
        <dc:type
           rdf:resource="http://purl.org/dc/dcmitype/StillImage" />
        <dc:title></dc:title>
      </cc:Work>
    </rdf:RDF>
  </metadata>
  <g
     inkscape:label="Layer 1"
     inkscape:groupmode="layer"
     id="layer1"
     transform="translate(-154.9865,-363.81317)">
    <text
       xml:space="preserve"
       style="font-size:200px;font-style:normal;font-variant:normal;font-weight:normal;font-stretch:normal;line-height:484.99999045999999000%;letter-spacing:0px;word-spacing:0px;fill:#ffffff;fill-opacity:1;stroke:#ffffff;stroke-width:6;stroke-opacity:1;font-family:Kool Beans;-inkscape-font-specification:Kool Beans;filter:url(#filter3890)"
       x="256.98691"
       y="543.75171"
       id="text3004-4"
       sodipodi:linespacing="484.99999%"><tspan
         sodipodi:role="line"
         id="tspan3006-0"
         x="256.98691"
         y="543.75171">+</tspan></text>
    <path
       style="fill:#ffffff;fill-opacity:1;fill-rule:evenodd;stroke:#ffffff;stroke-width:6;stroke-linecap:round;stroke-linejoin:miter;stroke-miterlimit:4;stroke-opacity:1;stroke-dasharray:none;filter:url(#filter3936)"
       d="m 265.20525,377.49442 c -2.13335,0 -2.125,6.40625 -2.125,6.40625 -12.0773,1.15022 -21.36031,6.04555 -27.1875,17.3125 -6.81865,-14.93402 -16.27845,-22.43737 -28.4375,-22.4375 -12.60936,1.3e-4 -22.34373,6.84387 -29.1875,20.53125 2.4844,-3.37489 8.17189,-5.06239 17.03125,-5.0625 7.82813,1.1e-4 14.96875,4.39073 21.4375,13.15625 5.99998,8.10946 10.34373,28.15632 13.0625,60.125 -6.89064,14.06252 -14.68751,28.81251 -23.40625,44.28125 l 27.34375,0 c 8.37137,-23.46925 18.08241,-45.47015 29.125,-66.03125 l 15.15625,0 c 0,-7.40017 -3.19272,-11.15765 -6.84375,-14.75 1.96393,-3.33463 3.96089,-6.65366 6,-9.90625 5.06657,4.02084 5.064,8.27157 9.375,7.59375 2.22235,-2.01393 -3.01533,-6.48635 0,-6.40625 2.13335,0 -0.40799,2.64225 2.125,4.28125 2.13335,0 8.53799,2.1355 8.53125,-8.53125 0,-4.26669 -12.78125,-25.625 -12.78125,-25.625 0,0 -4.03776,-4.05993 -4.28125,-7.46875 1.54891,-2.12134 1.0625,-4.24165 1.0625,-6.375 -2.13335,-2.13335 -6.40625,5.3125 -6.40625,5.3125 l -4.25,0 c 0,0 -1.67819,-4.25567 -5.34375,-6.40625 z m -4.78125,28.6875 c 0.92894,1.4525 2.20969,2.92152 3.625,4.375 l -3.59375,0 c -0.0677,-1.35766 -0.11047,-2.80572 -0.0312,-4.375 z"
       id="path3491-4"
       inkscape:connector-curvature="0" />
    <path
       inkscape:connector-curvature="0"
       style="fill:#ffffff;fill-opacity:1;fill-rule:evenodd;stroke:#000000;stroke-width:3.2000227;stroke-linecap:round;stroke-linejoin:miter;stroke-miterlimit:4;stroke-opacity:1;stroke-dasharray:none"
       d="m 263.60994,383.32188 c -22.40016,2.13335 -35.20025,17.06679 -34.13358,61.8671 l 49.06702,0 c 0,-19.20013 -21.33349,-13.86676 -17.06679,-44.80032"
       id="path3491"
       sodipodi:nodetypes="cccc" />
    <path
       inkscape:connector-curvature="0"
       style="fill:none;stroke:#000000;stroke-width:2.13334846;stroke-linecap:round;stroke-linejoin:miter;stroke-miterlimit:4;stroke-opacity:1;stroke-dasharray:none"
       d="m 231.60971,445.18898 c -2.13335,-42.66697 11.73342,-58.66708 25.60018,-60.80043"
       id="path8049"
       sodipodi:nodetypes="cc" />
    <path
       style="font-size:144px;font-style:normal;font-variant:normal;font-weight:normal;font-stretch:normal;line-height:484.99999046%;letter-spacing:0px;word-spacing:0px;fill:#000000;fill-opacity:1;stroke:#000000;stroke-width:4;stroke-opacity:1;filter:url(#filter3980);font-family:Kool Beans;-inkscape-font-specification:Kool Beans"
       d="m 211.00234,381.29755 c -12.60936,1.3e-4 -22.34373,6.84387 -29.1875,20.53125 2.4844,-3.37489 8.17189,-5.06239 17.03125,-5.0625 7.82813,1.1e-4 14.96875,4.39073 21.4375,13.15625 5.99998,8.10946 10.34373,28.15632 13.0625,60.125 -6.89064,14.06252 -14.68751,28.81251 -23.40625,44.28125 l 27.34375,0 c 13.35933,-37.45309 30.12494,-71.20306 50.28125,-101.25 l -30.21875,0 c -2.39067,6.79696 -5.06254,13.81258 -7.96875,21.03125 -1.96879,-9.79679 -5.15628,-19.65616 -9.5625,-29.59375 -6.84377,-15.46864 -16.43751,-23.21862 -28.8125,-23.21875 z"
       id="path6166-6"
       inkscape:connector-curvature="0"
       sodipodi:nodetypes="cccccccccccc" />
    <path
       style="font-size:144px;font-style:normal;font-variant:normal;font-weight:normal;font-stretch:normal;line-height:484.99999046%;letter-spacing:0px;word-spacing:0px;fill:#ffce9e;fill-opacity:1;stroke:#d18b47;stroke-width:3;stroke-opacity:1;font-family:Kool Beans;-inkscape-font-specification:Kool Beans"
       d="m 207.98671,378.20099 c -12.60936,1.3e-4 -22.34373,6.84387 -29.1875,20.53125 2.4844,-3.37489 8.17189,-5.06239 17.03125,-5.0625 7.82813,1.1e-4 14.96875,4.39073 21.4375,13.15625 5.99998,8.10946 10.34373,28.15632 13.0625,60.125 -6.89064,14.06252 -14.68751,28.81251 -23.40625,44.28125 l 27.34375,0 c 13.35933,-37.45309 30.12494,-71.20306 50.28125,-101.25 l -30.21875,0 c -2.39067,6.79696 -5.06254,13.81258 -7.96875,21.03125 -1.96879,-9.79679 -5.15628,-19.65616 -9.5625,-29.59375 -6.84377,-15.46863 -16.43751,-23.21862 -28.8125,-23.21875 z"
       id="path6166"
       inkscape:connector-curvature="0"
       sodipodi:nodetypes="cccccccccccc" />
    <path
       inkscape:connector-curvature="0"
       style="fill:#ffffff;fill-opacity:1;fill-rule:evenodd;stroke:#000000;stroke-width:3.2000227;stroke-linecap:round;stroke-linejoin:round;stroke-miterlimit:4;stroke-opacity:1;stroke-dasharray:none"
       d="m 259.34324,400.38867 c -0.82019,6.21077 11.84635,15.71983 17.06679,19.20013 6.40005,4.2667 6.01433,9.2649 10.66674,8.5334 2.22235,-2.01393 -3.01533,-6.48016 0,-6.40006 2.13335,0 -0.39964,2.62771 2.13335,4.26671 2.13335,0 8.54014,2.13335 8.5334,-8.5334 0,-4.26669 -12.8001,-25.60018 -12.8001,-25.60018 0,0 -4.0232,-4.0579 -4.26669,-7.46672 1.54891,-2.12134 1.06667,-4.26669 1.06667,-6.40004 -2.13335,-2.13335 -6.40004,5.33337 -6.40004,5.33337 l -4.2667,0 c 0,0 -1.66781,-4.24948 -5.33337,-6.40006 -2.13335,0 -2.13335,6.40006 -2.13335,6.40006"
       id="path3495"
       sodipodi:nodetypes="csccccccccccc" />
    <path
       sodipodi:type="arc"
       style="fill:#000000;fill-opacity:1;stroke:#000000;stroke-width:1.5;stroke-linecap:round;stroke-linejoin:round;stroke-miterlimit:4;stroke-opacity:1;stroke-dasharray:none"
       id="path3499"
       sodipodi:cx="8.5"
       sodipodi:cy="23.5"
       sodipodi:rx="0.5"
       sodipodi:ry="0.5"
       d="m 9,23.5 a 0.5,0.5 0 1 1 -1,0 0.5,0.5 0 1 1 1,0 z"
       transform="matrix(-2.1333485,0,0,2.1333485,309.47693,366.25509)" />
    <path
       sodipodi:type="arc"
       style="fill:#000000;fill-opacity:1;stroke:#000000;stroke-width:1.50000048;stroke-linecap:round;stroke-linejoin:round;stroke-miterlimit:4;stroke-opacity:1;stroke-dasharray:none"
       id="path3501"
       sodipodi:cx="14.5"
       sodipodi:cy="15.5"
       sodipodi:rx="0.5"
       sodipodi:ry="1.5"
       d="m 15,15.5 a 0.5,1.5 0 1 1 -1,0 0.5,1.5 0 1 1 1,0 z"
       transform="matrix(-1.8475331,1.0666742,1.0666742,1.8475331,289.86584,350.95175)" />
    <text
       xml:space="preserve"
       style="font-size:200px;font-style:normal;font-variant:normal;font-weight:normal;font-stretch:normal;line-height:484.99999045999999000%;letter-spacing:0px;word-spacing:0px;fill:#000000;fill-opacity:1;stroke:#000000;stroke-width:4;stroke-opacity:1;font-family:Kool Beans;-inkscape-font-specification:Kool Beans;filter:url(#filter3825)"
       x="258.99313"
       y="546.7655"
       id="text3004-1"
       sodipodi:linespacing="484.99999%"><tspan
         sodipodi:role="line"
         id="tspan3006-7"
         x="258.99313"
         y="546.7655">+</tspan></text>
    <text
       xml:space="preserve"
       style="font-size:200px;font-style:normal;font-variant:normal;font-weight:normal;font-stretch:normal;line-height:484.99999046%;letter-spacing:0px;word-spacing:0px;fill:#ffce9e;fill-opacity:1;stroke:#d18b47;stroke-width:3;stroke-opacity:1;font-family:Kool Beans;-inkscape-font-specification:Kool Beans"
       x="256.98651"
       y="543.75171"
       id="text3004"
       sodipodi:linespacing="484.99999%"><tspan
         sodipodi:role="line"
         id="tspan3006"
         x="256.98651"
         y="543.75171">+</tspan></text>
  </g>
</svg>
